<svg width="173" height="73" viewBox="0 0 173 73" fill="none" xmlns="http://www.w3.org/2000/svg">
<path d="M126.941 0.117188L127.972 0.375L128.98 0.609375C129.524 0.739413 130.062 0.837638 130.597 0.890625L131.628 0.984375L132.636 1.07812C133.14 1.12773 133.652 1.13952 134.159 1.10156L135.167 1.03125L136.198 0.9375L137.253 0.960938C138.287 1.07354 139.25 1.46556 140.089 2.03906L141.027 2.69531L141.894 3.30469L142.784 3.11719L143.839 2.90625C145.006 2.67206 146.199 2.69183 147.355 3.04688L148.316 3.35156L149.3 3.65625C150.636 4.06677 151.708 4.89569 152.488 5.97656L153.144 6.89062L153.542 7.42969H154.409L155.628 7.40625L156.823 7.5C158.005 7.72185 159.12 8.32195 159.941 9.42188L160.573 10.2656L161.206 11.1328C161.721 11.825 162.176 12.551 162.566 13.3125L163.034 14.25L163.527 15.1641C163.609 15.3233 163.725 15.4694 163.925 15.6094L164.792 16.2188L165.683 16.8516C166.622 17.5104 167.393 18.349 167.956 19.3594L168.472 20.2734L168.964 21.1641C169.702 22.4903 169.823 23.9393 169.527 25.3125L169.292 26.4609L169.175 26.9062L169.761 27.3516L170.816 28.1484C171.525 28.6942 172.277 29.5715 172.527 30.8203C172.78 32.0865 172.402 33.1925 171.917 33.9844L171.238 35.0625L170.581 36.1406C170.479 36.3066 170.449 36.4153 170.441 36.4453L170.534 37.3359L170.628 38.3203C170.648 38.535 170.714 38.8918 170.956 39.3984L172.034 41.6484C172.663 42.9588 172.902 44.4637 172.433 45.9844L172.105 46.9922L171.8 48.0234C171.352 49.4743 170.406 50.5834 169.222 51.3516L168.191 52.0078L167.159 52.6875C167.115 52.7163 167.063 52.7171 167.042 52.7344L166.784 53.6484L166.503 54.6562C166.212 55.6521 165.741 56.5662 165.12 57.3984L163.902 59.0391C163.332 59.8017 162.665 60.4749 161.909 61.0547L161.113 61.6875L160.292 62.2969C159.678 62.7683 159.045 63.2051 158.394 63.6094L157.55 64.1484L156.706 64.6641C155.981 65.1145 155.204 65.5064 154.409 65.8125L153.495 66.1641L152.558 66.5156V66.5391C152.551 66.5429 152.531 66.5465 152.511 66.5625C152.471 66.5956 152.394 66.6665 152.3 66.7969L151.62 67.7578L150.917 68.7188C149.999 69.9951 148.631 70.8957 146.909 70.9922L144.777 71.0859C144.533 71.1004 144.282 71.1741 144.003 71.3203L143.019 71.8594L142.034 72.375C140.493 73.1936 138.807 73.1695 137.3 72.4453L135.191 71.4141C134.949 71.2992 134.837 71.3175 134.816 71.3203L133.808 71.4609L132.8 71.5781C132.007 71.6814 131.206 71.7586 130.409 71.7656H128.37C127.913 71.7697 127.437 71.8232 126.964 71.9297L124.948 72.3984C123.976 72.617 122.987 72.674 121.995 72.5859L120.964 72.4922L119.956 72.3984C119.277 72.3377 118.597 72.275 117.917 72.2109L116.909 72.1172L115.878 72.0234C115.245 71.9638 114.612 71.9172 113.98 71.8828L112.948 71.8359L111.941 71.7891C111.482 71.7644 111.023 71.786 110.558 71.8594L109.527 72.0234L108.519 72.1641C107.833 72.2729 107.142 72.3895 106.456 72.4922L105.448 72.6328L104.441 72.7969C103.588 72.9245 102.72 72.9638 101.863 72.9375L99.8469 72.8906C99.1163 72.8682 98.3739 72.8118 97.6438 72.75L96.636 72.6797L95.6047 72.5859C94.4831 72.4896 93.4253 72.1443 92.4407 71.625L91.4329 71.0859L90.4016 70.5703C90.1878 70.4576 90.1049 70.4522 90.0969 70.4531L88.0813 70.6875C87.766 70.7224 87.4085 70.8245 87.0032 71.0156L85.9719 71.4844L84.9641 71.9766C83.9383 72.4602 82.8359 72.7407 81.6829 72.75H79.6438C78.6312 72.7571 77.6323 72.6177 76.6672 72.3047L75.6594 71.9531L74.6516 71.625C74.1359 71.4578 73.623 71.342 73.1282 71.2734L72.1204 71.1328L71.0891 70.9922C70.4733 70.9071 69.8523 70.853 69.2375 70.8047L68.2297 70.7109L67.2219 70.6406C66.5385 70.5869 65.8428 70.535 65.1594 70.4766L64.1516 70.3828L63.1204 70.2891C62.6927 70.2535 62.2654 70.2902 61.8313 70.3594L60.8235 70.5L59.7922 70.6641C58.9052 70.805 58.0143 70.8585 57.1204 70.8047L56.0891 70.7344L55.0813 70.6875C54.2687 70.6381 53.4494 70.519 52.6438 70.3594L51.636 70.1719L50.6516 69.9609C50.6372 69.9671 50.6275 69.9958 50.6047 70.0078L49.5735 70.5469L48.5657 71.1094C47.7083 71.5699 46.8092 71.9157 45.8938 72.1641L43.8782 72.7266C42.752 73.0321 41.5792 73.0595 40.4329 72.8203L38.4172 72.3984C37.8778 72.2859 37.337 72.2237 36.8 72.1875L35.7688 72.1172L34.761 72.0469C34.0915 72.0022 33.3989 71.9674 32.7219 71.9297L31.6907 71.8594L30.6594 71.8125C29.7978 71.7641 28.9457 71.6361 28.1047 71.4375L26.0891 70.9688C24.7926 70.6623 23.686 69.9705 22.8079 69.0234L22.0579 68.2031L21.2844 67.3828L21.261 67.3594L20.2297 67.2422L19.1516 67.125C17.866 66.9711 16.6778 66.4555 15.6829 65.5781L12.5891 62.8594L11.8391 62.1797L11.0657 61.5C10.394 60.9018 9.78546 60.2384 9.26098 59.5078L8.67504 58.6875L8.0891 57.8438C7.46767 56.9781 7.01285 56.0157 6.75317 54.9844L6.49535 53.9766L6.33129 53.25L4.08129 52.1016C3.25222 51.6709 2.30744 50.8949 1.87817 49.6406C1.46082 48.4101 1.7145 47.2559 2.06567 46.4297L2.60473 45.2109L3.12035 43.9688C3.2151 43.7457 3.24138 43.615 3.24828 43.5596L3.05004 42.6797L2.8391 41.7188C2.74774 41.3099 2.60758 40.861 2.39379 40.3828L1.94848 39.4219L1.5266 38.4375C1.15308 37.6017 0.859069 36.7345 0.659416 35.8359L0.190666 33.7266C-0.055302 32.6195 -0.063472 31.4893 0.167228 30.375L0.378166 29.3203L0.589103 28.2891C0.748116 27.5259 0.934583 26.7668 1.1516 26.0156L1.45629 25.0078L1.76098 23.9766C2.22669 22.3705 3.32555 21.2457 4.64379 20.5547L6.89379 19.3828L7.1516 18.6094L7.45629 17.625C7.83655 16.4253 8.5354 15.3785 9.51879 14.5781L10.3157 13.9453L11.0891 13.3125C11.3759 13.0791 11.6187 12.7957 11.8391 12.4688L12.425 11.625L12.9875 10.7578C13.6359 9.79389 14.493 9.01692 15.5188 8.46094L16.4094 7.99219L17.3 7.5C17.453 7.4172 17.6608 7.26677 17.886 6.96094L19.2454 5.08594C19.805 4.32506 20.6327 3.6673 21.7063 3.375C22.2249 3.23529 22.7312 3.20119 23.2063 3.23438L24.5188 3.49219L25.761 3.91406L26.4875 4.17188L26.8625 3.79688L27.7063 3C28.825 1.92988 30.316 1.29519 31.9954 1.47656L33.0266 1.59375L34.0813 1.71094C34.8734 1.79624 35.5924 1.67234 36.3782 1.52344L38.3938 1.14844C39.7566 0.890195 41.0864 1.11165 42.2844 1.6875L43.3157 2.17969L44.0657 2.55469L44.8391 2.20312L45.8704 1.75781C46.744 1.36999 47.6427 1.08456 48.5657 0.914062L49.5735 0.726562L50.6047 0.539062C51.8191 0.316111 53.02 0.43663 54.1672 0.84375L55.1985 1.19531L56.2063 1.54688C56.5941 1.68484 56.954 1.75259 57.2844 1.75781L58.2922 1.78125H59.3C59.6255 1.7864 59.9786 1.74076 60.3547 1.61719L61.3625 1.28906L62.3938 0.960938C63.4748 0.606638 64.6071 0.486003 65.7454 0.632812L66.7532 0.75L67.761 0.890625C68.8433 1.03022 69.8744 1.38187 70.8313 1.89844L71.8625 2.46094L72.1907 2.64844L72.6829 2.27344L73.6907 1.5L74.675 0.890625C75.3708 0.543736 76.1474 0.338565 76.9719 0.328125L78.2375 0.46875L79.2454 0.726562L80.2766 0.960938C80.4241 0.995668 80.5527 0.987131 80.7219 0.9375L81.7532 0.632812L82.761 0.328125L83.9094 0.117188C84.6596 0.0581983 85.3943 0.164044 86.0891 0.398438L87.1204 0.867188L89.136 1.99219C89.2036 2.02993 89.254 2.05525 89.2766 2.0625L90.2844 1.89844L91.2922 1.75781C91.9702 1.65605 92.6533 1.55307 93.3313 1.45312L94.3391 1.28906L95.3704 1.14844C95.9118 1.06836 96.4589 0.953709 97.011 0.796875L98.0188 0.515625L99.05 0.210938L100.386 0.0234375C101.252 0.0223277 102.062 0.255247 102.777 0.632812L103.784 1.3125L104.792 2.13281L104.933 2.27344L105.097 2.13281L106.105 1.3125L107.206 0.609375C107.989 0.233084 108.868 0.0448263 109.784 0.140625L111.191 0.515625L112.222 0.960938L113.23 1.40625C113.27 1.42347 113.304 1.42969 113.347 1.42969L114.378 1.17188L115.386 0.9375L116.581 0.773438C117.358 0.761862 118.098 0.927469 118.784 1.21875L119.769 1.73438L120.8 2.41406L120.941 2.50781L121.269 2.22656L122.277 1.38281C123.164 0.628926 124.307 0.0532917 125.605 0L126.941 0.117188Z" fill="#FF613E"/>
</svg>
