<svg width="324" height="72" viewBox="0 0 324 72" fill="none" xmlns="http://www.w3.org/2000/svg">
<path d="M195.596 0.0390625C196.727 0.0584366 197.775 0.448737 198.705 1.07031L199.721 1.74219L200.736 2.42969C201 2.60459 201.104 2.58114 201.143 2.57031L203.174 2.03906C203.992 1.8281 204.825 1.7158 205.658 1.69531L206.674 1.66406L207.689 1.64844C208.466 1.62947 209.243 1.66129 210.018 1.75781L212.049 2.00781C212.705 2.08964 213.361 2.16361 214.018 2.22656L215.033 2.33594L216.049 2.42969C216.763 2.49812 217.477 2.58519 218.189 2.69531L220.221 3.00781C220.358 3.02906 220.568 3.02731 220.908 2.82031L222.939 1.57031C223.988 0.93204 225.187 0.666126 226.439 0.945312L227.455 1.16406L228.471 1.39844C228.755 1.46216 229.047 1.4425 229.377 1.32031L231.408 0.570312C232.65 0.111735 233.921 0.235039 235.064 0.835938L237.096 1.89844C237.448 2.08253 237.706 2.11306 237.924 2.08594L238.939 1.96094L239.955 1.82031C240.711 1.72192 241.478 1.67052 242.236 1.66406H243.252L244.268 1.64844C244.797 1.64351 245.337 1.58231 245.877 1.46094L246.893 1.22656L247.893 1.00781C248.767 0.811116 249.661 0.741017 250.549 0.820312L256.643 1.38281C257.293 1.44411 257.946 1.5038 258.596 1.53906L259.611 1.58594L260.627 1.64844C261.161 1.6774 261.698 1.64025 262.236 1.55469L264.268 1.24219C264.95 1.13385 265.632 1.0162 266.314 0.914062L267.33 0.773438L268.346 0.617188C269.138 0.49864 269.94 0.452136 270.736 0.476562L272.768 0.539062C273.476 0.560927 274.184 0.604192 274.893 0.664062L275.908 0.742188L276.924 0.835938C277.9 0.918525 278.837 1.21348 279.721 1.67969L281.752 2.74219C282.12 2.9361 282.396 2.97067 282.627 2.94531L284.658 2.72656C285.096 2.67804 285.561 2.53955 286.064 2.30469L287.096 1.83594L288.111 1.35156C289.081 0.898882 290.122 0.704222 291.189 0.789062L292.236 0.867188L293.268 0.945312C294.269 1.02493 295.223 1.3328 296.096 1.83594L297.033 2.36719L297.971 2.91406C298.571 3.25985 299.152 3.58615 299.721 3.88281L300.611 4.33594L301.518 4.80469C302.152 5.13582 302.761 5.49934 303.361 5.86719L305.049 6.89844C305.686 7.2892 306.302 7.70976 306.877 8.17969L307.627 8.80469L308.393 9.41406C308.831 9.77223 309.293 10.1073 309.783 10.4141L311.471 11.4766C312.225 11.9493 312.878 12.5405 313.424 13.2422L314.643 14.8047C315.155 15.4652 315.573 16.1879 315.893 16.9609L316.268 17.8828L316.643 18.7891C316.725 18.9892 316.889 19.2234 317.236 19.4609L319.111 20.7422C319.926 21.2999 320.623 21.9822 321.174 22.7891L322.393 24.5703C323.015 25.484 323.346 26.5261 323.361 27.6328L323.393 29.7578C323.402 30.4565 323.416 31.148 323.439 31.8203L323.502 33.8828C323.526 34.5722 323.56 35.2694 323.58 35.9609L323.643 38.0234C323.666 38.8283 323.619 39.6316 323.502 40.4297L323.346 41.4609L323.189 42.4766C323.027 43.5809 322.542 44.5628 321.799 45.3828L320.299 47.0391C320.109 47.2482 320.042 47.4344 320.033 47.6641L319.986 48.7578L319.955 49.8359C319.918 50.9399 319.571 51.9727 318.908 52.8672L317.689 54.5234C317.281 55.0746 316.863 55.6186 316.455 56.1641L315.846 56.9766L315.236 57.8047C314.742 58.465 314.176 59.0654 313.549 59.6016L312.783 60.2578L312.002 60.9297C311.291 61.5371 310.484 61.9987 309.596 62.3047L308.611 62.6328L307.627 62.9766C307.605 62.9842 307.579 62.9936 307.549 63.0234C307.508 63.0655 307.42 63.183 307.33 63.3984L306.83 64.5859L306.346 65.7891C306.052 66.4954 305.515 67.2331 304.611 67.6328C303.72 68.0263 302.822 67.9267 302.111 67.6953L300.83 67.2891L299.564 66.8672C298.964 66.6709 298.671 66.7138 298.58 66.7422L297.658 67.0391L296.736 67.3203C296.264 67.4688 295.765 67.6922 295.252 67.9766L294.33 68.4922L293.393 69.0078C292.664 69.4107 291.904 69.746 291.111 70.0078L290.096 70.3359L289.08 70.6797C288.209 70.967 287.311 71.1042 286.408 71.1016H284.377C283.737 71.0997 283.095 71.1156 282.455 71.1484L281.439 71.1953L280.424 71.2578C279.188 71.3205 278.067 70.8803 277.111 70.1797L275.08 68.6797C274.918 68.5605 274.821 68.544 274.799 68.5391V68.5234L274.768 68.5391L272.736 69.1016C271.781 69.3665 270.805 69.4126 269.83 69.2422L267.799 68.8984C267.401 68.8289 267.005 68.8292 266.596 68.9297L264.564 69.4297C263.665 69.6516 262.746 69.7186 261.83 69.6172L259.799 69.3984C259.55 69.3718 259.26 69.402 258.893 69.5859L256.861 70.6172C256.197 70.9502 255.446 71.0927 254.658 70.9766C253.889 70.8632 253.232 70.5183 252.689 70.0859L251.674 69.2734L250.705 68.5078L249.877 69.0234L248.861 69.6172C247.82 70.2312 246.637 70.4988 245.408 70.2422L243.377 69.8047C242.787 69.6806 242.196 69.5971 241.611 69.5547L240.596 69.4922L239.58 69.4141C239.296 69.3935 238.972 69.4425 238.58 69.6328L236.549 70.6328C235.384 71.2024 234.114 71.2609 232.893 70.7734L231.877 70.3828L230.861 69.9766C230.369 69.78 229.903 69.6616 229.455 69.6328L227.424 69.5078C226.538 69.4522 225.663 69.2638 224.814 68.9453L223.799 68.5703L222.783 68.1797C222.761 68.1714 222.744 68.1656 222.736 68.1641H222.721C222.717 68.1645 222.651 68.1738 222.518 68.2578L220.486 69.5391C219.525 70.1427 218.442 70.477 217.283 70.4141L216.268 70.3672L215.252 70.3047C214.416 70.259 213.585 70.1242 212.768 69.8828L211.752 69.5703L210.736 69.2734C210.14 69.0976 209.544 68.961 208.955 68.8672L206.924 68.5547C206.423 68.4752 205.921 68.4539 205.424 68.5078L203.393 68.7266C202.858 68.7849 202.319 68.9105 201.768 69.0859L200.752 69.3984L199.736 69.7266C198.954 69.9762 198.158 70.1527 197.361 70.2578L196.346 70.3984L195.33 70.5234C194.651 70.6126 193.962 70.7025 193.283 70.7891L192.268 70.9297L191.252 71.0547C189.967 71.217 188.789 70.7999 187.799 70.0859L186.783 69.3516L185.939 68.7422L185.08 69.3672L184.064 70.1016C183.042 70.8456 181.807 71.2541 180.471 70.9922L178.439 70.5859C177.905 70.4805 177.372 70.4314 176.846 70.4453L174.814 70.5078C173.959 70.5302 173.109 70.4302 172.268 70.2266L171.252 69.9766L170.236 69.7422C169.836 69.645 169.441 69.6352 169.049 69.7109L168.033 69.8984L167.018 70.1016C165.991 70.2989 164.961 70.2156 163.971 69.8828L162.955 69.5391L161.939 69.2109C161.615 69.1027 161.33 69.0924 161.033 69.1641L160.018 69.3984L159.002 69.6484C157.84 69.9316 156.686 69.7815 155.627 69.2734L154.611 68.7891L153.674 68.3359L153.643 68.3672L152.627 69.1484L151.611 69.9141C151.013 70.368 150.258 70.7166 149.377 70.7109C148.496 70.7045 147.735 70.3411 147.143 69.8828L146.127 69.1016L145.127 68.3203C144.738 68.0194 144.529 68.0186 144.471 68.0234L143.455 68.1172L142.455 68.1953C142.276 68.21 141.954 68.2998 141.502 68.6641L140.502 69.4766L139.486 70.2891C138.506 71.0792 137.283 71.5792 135.924 71.3984L134.908 71.2734L133.893 71.1328C133.095 71.0263 132.301 70.8537 131.518 70.6016L129.486 69.9453C128.764 69.7128 128.049 69.439 127.33 69.1484L125.299 68.3359C125.079 68.2469 124.908 68.245 124.705 68.3203L122.674 69.0703C121.745 69.4144 120.781 69.5708 119.799 69.4922L118.783 69.3984L117.768 69.3203C117.192 69.2737 116.608 69.2789 116.033 69.3203L115.018 69.3828L114.002 69.4609C113.362 69.5072 112.721 69.5689 112.08 69.6484L110.049 69.8984C109.126 70.0129 108.206 69.9511 107.299 69.7266L105.268 69.2266C104.726 69.0922 104.187 69.0091 103.658 68.9922L101.627 68.9297C100.817 68.9045 100.005 68.8027 99.2051 68.6172L97.1738 68.1484C96.9908 68.106 96.7853 68.1096 96.4863 68.2578L95.4707 68.7578L94.4551 69.2734C93.256 69.8694 91.954 69.9032 90.7207 69.3516L88.6895 68.4453C88.3077 68.2742 87.9823 68.2279 87.6895 68.2578L85.6582 68.4766C84.8634 68.5605 84.0633 68.5676 83.2676 68.5078L81.2363 68.3516C80.8299 68.3209 80.4123 68.3823 79.9707 68.5234L78.9551 68.8359L77.9395 69.1641C77.3069 69.3669 76.6688 69.5995 76.0332 69.8516L75.0176 70.2578L74.002 70.6484C73.1111 71.0017 72.1808 71.191 71.2363 71.1953L70.2207 71.2109H69.2051C68.2426 71.2142 67.3077 71.0084 66.4082 70.6328L64.377 69.7891C64.1124 69.6784 63.9033 69.6772 63.6895 69.7422L62.6738 70.0547L61.6582 70.3516C60.5622 70.6836 59.4501 70.6466 58.377 70.2578L57.3613 69.8984L56.3457 69.5234C55.9838 69.3922 55.6592 69.3735 55.3457 69.4297L54.3301 69.6172L53.3145 69.7891C52.5254 69.9303 51.734 70.0079 50.9395 70.0078H48.9082C48.3033 70.0075 47.6862 70.0368 47.0801 70.1016L45.0488 70.3203C44.4987 70.3796 43.9398 70.4979 43.377 70.6641L41.3457 71.2578C40.378 71.5428 39.384 71.5952 38.3926 71.4141L37.377 71.2422L36.3613 71.0547C35.5268 70.9021 34.7087 70.6357 33.9082 70.2891L32.9082 69.8672L31.8926 69.4297C31.3942 69.2143 30.9275 69.0844 30.4863 69.0391L29.4863 68.9453L28.502 68.8359C27.6882 68.7523 26.8853 68.5852 26.1113 68.3203L25.1582 67.9922L24.2207 67.6641C23.9231 67.5621 23.5128 67.5046 22.9707 67.5703L21.7988 67.7266L20.6113 67.8672C19.9068 67.9514 19.1494 67.866 18.4395 67.5078C17.7301 67.1487 17.2127 66.5915 16.8613 65.9766L16.2832 64.9297L15.6895 63.8984C15.5785 63.7042 15.4953 63.6595 15.3457 63.6328L14.2051 63.4453L13.0645 63.2422C11.9905 63.0528 11.0108 62.6123 10.1738 61.9141L9.3457 61.2266L8.5332 60.5547C7.80802 59.9497 7.19731 59.2301 6.7207 58.4141L6.17383 57.4766L5.64258 56.5547C5.04705 55.5337 4.83307 54.3904 4.92383 53.2266L5.0332 51.9922L5.12695 50.7734C5.1707 50.2125 5.07289 49.8876 4.98633 49.7109L4.56445 48.8359L4.14258 47.9766C4.00653 47.7005 3.7402 47.3623 3.2832 46.9766L1.43945 45.4141C0.926534 44.9808 0.478267 44.4238 0.220703 43.7266C-0.040844 43.0157 -0.0581491 42.2752 0.0957031 41.5859L0.330078 40.5078L0.580078 39.4297C0.740805 38.7097 0.894147 38.0163 1.04883 37.3516L1.2832 36.3516L1.51758 35.3672C1.59414 35.0382 1.58694 34.694 1.48633 34.3203L1.2207 33.3047L0.939453 32.2891C0.679622 31.3241 0.634928 30.3296 0.830078 29.3516L1.0332 28.3672L1.23633 27.3672C1.34544 26.8203 1.4049 26.2269 1.42383 25.6016L1.45508 24.5234L1.48633 23.4297C1.51538 22.4701 1.70587 21.5337 2.06445 20.6484L2.4707 19.6641L2.87695 18.6641C3.43185 17.2968 4.57406 16.4966 5.86133 16.1328L7.14258 15.7734L8.4082 15.4141C8.97205 15.2546 9.16538 15.0776 9.2207 15.0078L9.81445 14.2266L10.3926 13.4453C10.7629 12.9581 11.1351 12.4497 11.502 11.9141L12.6582 10.2266C13.2203 9.40562 13.9536 8.74369 14.8301 8.27344L15.7207 7.80469L16.6113 7.32031C17.3449 6.92799 18.1179 6.63365 18.9238 6.42969L19.8926 6.17969L20.877 5.92969C21.41 5.79431 21.9144 5.61619 22.3926 5.39844L24.1738 4.58594C24.8822 4.26375 25.6182 4.01556 26.377 3.83594L27.3301 3.61719L28.2988 3.38281C28.8873 3.24361 29.4895 3.08529 30.0957 2.89844L31.0645 2.60156L32.0332 2.28906C32.6514 2.09852 33.0982 1.96926 33.252 1.92969L33.3926 1.89844L33.5332 1.85156C33.7104 1.80615 34.1863 1.72061 34.8145 1.60156L35.8301 1.41406L36.8457 1.21094C37.98 0.99602 39.087 1.18691 40.1113 1.67969L42.1426 2.64844C42.2484 2.69943 42.309 2.71044 42.3301 2.71094C42.3495 2.7113 42.4053 2.70699 42.502 2.66406L44.5332 1.75781C45.3388 1.40048 46.1636 1.14724 47.002 0.992188L49.0332 0.617188C50.0698 0.426014 51.104 0.514989 52.0957 0.867188L54.127 1.58594C54.61 1.7578 55.0726 1.8442 55.5176 1.85156L57.5488 1.88281C57.9914 1.88981 58.4475 1.82055 58.9238 1.66406L59.9395 1.33594L60.9551 0.992188C61.9005 0.681967 62.8778 0.584626 63.8613 0.710938L64.877 0.851562L65.8926 0.976562C66.8424 1.09907 67.7614 1.4142 68.627 1.88281L69.6426 2.42969L70.5488 2.91406L71.5488 2.16406L72.5645 1.39844C73.6045 0.618366 74.8868 0.204502 76.2676 0.539062L77.2676 0.789062L78.2832 1.02344C78.6103 1.10268 78.9409 1.09463 79.2832 0.992188L80.2832 0.695312L81.2988 0.398438C82.5438 0.0258646 83.7808 0.210315 84.877 0.820312L85.8926 1.39844L86.9082 1.96094C87.2521 2.15298 87.4925 2.17566 87.6738 2.14844L89.7051 1.83594C90.3819 1.73435 91.0595 1.63884 91.7363 1.53906L93.7676 1.22656C94.3552 1.13987 94.954 1.0206 95.5488 0.851562L96.5645 0.554688L97.5645 0.273438L98.6426 0.117188C99.6778 0.115727 100.624 0.545218 101.408 1.17969L102.424 1.99219L103.189 2.63281L104.986 1.19531C105.834 0.514089 106.864 0.122529 107.955 0.242188L109.064 0.539062L111.096 1.41406C111.392 1.54087 111.621 1.54725 111.846 1.49219L113.877 0.992188C115.181 0.669771 116.426 0.985267 117.486 1.67969L118.502 2.33594L119.283 2.85156L120.174 2.08594L121.189 1.22656C122.203 0.368199 123.51 -0.153219 124.971 0.195312L125.986 0.429688L127.002 0.679688C127.592 0.820739 128.184 0.919133 128.768 0.976562L129.783 1.07031L130.799 1.17969C131.356 1.23424 131.914 1.23733 132.471 1.19531L134.502 1.03906C135.63 0.953172 136.705 1.23881 137.674 1.78906L139.705 2.94531C139.804 3.00144 139.86 3.02096 139.877 3.02344H139.908C139.92 3.02123 139.938 3.00543 139.971 2.99219L142.002 2.14844C142.882 1.78038 143.8 1.5565 144.736 1.52344L146.768 1.46094C147.829 1.42381 148.841 1.69167 149.783 2.17969L150.799 2.69531L151.752 3.21094C151.765 3.20344 151.782 3.19147 151.799 3.17969L152.814 2.47656L153.83 1.78906C154.872 1.07238 156.105 0.713096 157.424 1.00781L158.439 1.24219L159.455 1.46094C160.153 1.61748 160.851 1.79446 161.549 1.97656L163.58 2.50781C163.845 2.57695 164.107 2.5709 164.408 2.46094L165.424 2.07031L166.439 1.69531C167.305 1.37508 168.205 1.20772 169.111 1.17969L171.143 1.11719C172.276 1.08331 173.334 1.41869 174.283 2.00781L175.299 2.63281L176.096 3.14844L177.033 2.38281L178.049 1.53906L179.033 0.914062C179.401 0.755228 179.809 0.65024 180.252 0.632812C180.704 0.616003 181.133 0.697703 181.518 0.835938L182.549 1.39844L184.58 2.92969C184.946 3.20514 185.123 3.20114 185.174 3.19531L187.205 2.94531C187.492 2.91155 187.868 2.79947 188.33 2.47656L189.346 1.75781L190.361 1.05469C191.305 0.397016 192.384 -0.0113773 193.564 0.0078125L195.596 0.0390625ZM193.502 4.00781C193.331 4.00503 193.051 4.0505 192.643 4.33594L190.611 5.74219C189.721 6.36368 188.74 6.80417 187.674 6.92969L186.658 7.03906L185.643 7.16406C184.338 7.31743 183.156 6.87255 182.174 6.13281L181.158 5.36719L180.377 4.77344L179.58 5.46094L178.564 6.30469C178.011 6.76167 177.313 7.13953 176.486 7.22656C175.635 7.31479 174.853 7.06621 174.205 6.66406L172.174 5.41406C171.776 5.16706 171.485 5.09625 171.268 5.10156L169.236 5.16406C168.789 5.17789 168.318 5.28068 167.83 5.46094L165.799 6.21094C164.754 6.59628 163.663 6.64907 162.58 6.36719L161.564 6.11719L160.549 5.85156C159.894 5.68066 159.234 5.51381 158.58 5.36719L157.564 5.13281L156.549 4.91406C156.513 4.90563 156.4 4.87676 156.096 5.08594L155.08 5.77344L154.064 6.47656C153.5 6.86494 152.83 7.14731 152.08 7.21094C151.324 7.27457 150.616 7.09861 149.986 6.77344L148.971 6.25781L147.955 5.72656C147.545 5.51394 147.2 5.45074 146.908 5.46094L144.877 5.52344C144.461 5.53818 144.021 5.63856 143.549 5.83594L141.518 6.67969C140.233 7.2166 138.911 7.0953 137.736 6.42969L135.705 5.27344C135.324 5.05698 135.037 5.00725 134.814 5.02344L132.783 5.17969C131.992 5.23991 131.199 5.22591 130.408 5.14844L128.377 4.96094C127.61 4.88549 126.841 4.75189 126.08 4.57031L125.064 4.32031L124.064 4.08594C124.028 4.09984 123.924 4.1402 123.768 4.27344L122.752 5.14844L121.736 6.00781C121.182 6.47678 120.476 6.8628 119.627 6.94531C118.756 7.02989 117.973 6.77122 117.33 6.35156L116.314 5.67969L115.299 5.02344C115.021 4.84138 114.899 4.85416 114.846 4.86719L113.83 5.13281L112.814 5.38281C111.688 5.66113 110.555 5.54031 109.502 5.08594L108.486 4.64844L107.564 4.24219L106.471 5.11719L105.455 5.94531C104.864 6.41842 104.097 6.79134 103.189 6.78906C102.28 6.78633 101.513 6.40599 100.924 5.92969L99.9082 5.10156L98.8926 4.28906C98.7223 4.15126 98.6327 4.11871 98.627 4.11719L97.6582 4.41406L96.6426 4.69531C95.8846 4.91073 95.1109 5.08252 94.3457 5.19531L93.3301 5.33594L92.3145 5.49219C91.6427 5.59121 90.9706 5.68824 90.2988 5.78906L88.2676 6.10156C87.0968 6.27728 85.9793 6.00778 84.9707 5.44531L82.9395 4.32031C82.6855 4.17852 82.5603 4.1953 82.4551 4.22656L81.4395 4.52344L80.4238 4.83594C79.4128 5.13849 78.372 5.16272 77.3457 4.91406L76.3301 4.66406L75.3145 4.42969C75.2959 4.4253 75.2897 4.42404 75.2676 4.42969C75.2326 4.43879 75.1241 4.47446 74.9551 4.60156L73.9395 5.36719L72.9238 6.11719C72.3668 6.53565 71.6994 6.86347 70.9238 6.94531C70.1336 7.02847 69.3967 6.84076 68.752 6.49219L66.7207 5.39844C66.2329 5.13433 65.7805 4.99736 65.377 4.94531L64.3613 4.80469L63.3457 4.67969C62.9804 4.63364 62.6083 4.67223 62.2051 4.80469L60.1738 5.46094C59.2968 5.7491 58.3971 5.89722 57.4863 5.88281L55.4551 5.85156C54.5483 5.83698 53.6518 5.66059 52.7832 5.35156L50.752 4.63281C50.3968 4.50761 50.0789 4.4828 49.7676 4.53906L47.7363 4.91406C47.2281 5.00779 46.6992 5.17434 46.1582 5.41406L44.127 6.32031C42.9048 6.86339 41.6052 6.83438 40.4082 6.25781L39.3926 5.77344L38.377 5.27344C38.0535 5.11873 37.8114 5.10829 37.5957 5.14844L35.5645 5.52344C35.23 5.58681 34.9681 5.64311 34.7832 5.67969C34.6903 5.69806 34.6142 5.71614 34.5645 5.72656H34.5332L34.3926 5.77344L34.252 5.80469C34.252 5.80472 34.1696 5.82279 33.9707 5.88281C33.7905 5.93718 33.542 6.01815 33.2207 6.11719L32.2363 6.41406L31.2676 6.71094C30.5768 6.92386 29.8864 7.11249 29.2051 7.27344L28.252 7.50781L27.2988 7.72656C26.7914 7.84664 26.3015 8.01216 25.8301 8.22656L24.0488 9.03906C23.3446 9.35971 22.6071 9.61202 21.8457 9.80469L19.9082 10.3047C19.4181 10.4287 18.9492 10.6125 18.502 10.8516L17.6113 11.3203L16.7207 11.8047C16.4228 11.9651 16.1761 12.1788 15.9707 12.4766L15.3926 13.3359L14.8145 14.1797C14.412 14.7674 13.9927 15.3244 13.5801 15.8672L13.002 16.6484L12.4082 17.4141C11.6738 18.3803 10.6187 18.9572 9.50195 19.2734L8.2207 19.6328L6.95508 19.9922C6.74898 20.0504 6.64593 20.1069 6.61133 20.1328L6.58008 20.1641L6.17383 21.1641L5.7832 22.1484C5.60693 22.5834 5.502 23.0454 5.48633 23.5391L5.42383 25.7266C5.39869 26.557 5.31383 27.3681 5.1582 28.1484L4.95508 29.1484L4.75195 30.1328C4.68239 30.4815 4.69325 30.8486 4.79883 31.2422L5.08008 32.2578L5.3457 33.2891C5.6103 34.2739 5.63935 35.2802 5.4082 36.2734L5.17383 37.2578L4.95508 38.2578C4.80293 38.9116 4.64508 39.5935 4.48633 40.3047L4.23633 41.3828L4.01758 42.3516L4.93945 43.1328L5.87695 43.9141C6.65097 44.5679 7.28824 45.3334 7.7207 46.2109L8.1582 47.0703L8.58008 47.9453C9.05873 48.92 9.19443 49.9935 9.11133 51.0703L8.92383 53.5391C8.88638 54.0193 8.97064 54.3246 9.0957 54.5391L9.64258 55.4609L10.1738 56.3984C10.4172 56.8148 10.7279 57.1697 11.0957 57.4766L11.9082 58.1641L12.7363 58.8516C12.9939 59.0655 13.326 59.2268 13.7676 59.3047L14.8926 59.4922L16.0332 59.6953C17.3993 59.9362 18.4796 60.7269 19.1582 61.9141L19.752 62.9453L20.2676 63.8672L21.3145 63.7422L22.502 63.6016C23.5302 63.4778 24.5542 63.5526 25.5176 63.8828L26.4551 64.2109L27.4082 64.5234C27.8958 64.6905 28.3956 64.7989 28.9082 64.8516L29.9082 64.9609L30.8926 65.0703C31.778 65.1613 32.6463 65.3942 33.4863 65.7578L34.4863 66.1953L35.502 66.6328C36.0382 66.8645 36.5645 67.0228 37.0801 67.1172L39.1113 67.4922C39.4718 67.558 39.8365 67.5275 40.2207 67.4141L42.252 66.8203C43.0374 66.5887 43.8288 66.4215 44.627 66.3359L45.6426 66.2266L46.6582 66.1328C47.4054 66.0529 48.1598 66.0074 48.9082 66.0078H50.9395C51.4941 66.0079 52.0511 65.9519 52.6113 65.8516L53.627 65.6797L54.6426 65.4922C55.6819 65.3063 56.7141 65.4141 57.7051 65.7734L58.7207 66.1328L59.7363 66.5078C60.0136 66.6081 60.2473 66.6008 60.502 66.5234L61.5176 66.2266L62.5332 65.9141C63.6707 65.5686 64.8212 65.6483 65.9082 66.1016L67.9395 66.9453C68.3878 67.1328 68.804 67.2119 69.1895 67.2109H70.2051L71.2207 67.1953C71.6296 67.1935 72.0707 67.1131 72.5332 66.9297L73.5488 66.5391L74.5488 66.1328C75.2662 65.8483 76.0003 65.5826 76.7207 65.3516L77.7207 65.0391L78.7363 64.7109C79.6464 64.4191 80.5877 64.296 81.5332 64.3672L83.5645 64.5234C84.1206 64.5654 84.6792 64.551 85.2363 64.4922L86.252 64.3828L87.2676 64.2891C88.3226 64.1782 89.3486 64.3576 90.3145 64.7891L91.3301 65.2422L92.3457 65.7109C92.438 65.7523 92.4897 65.7425 92.502 65.7422C92.5185 65.7415 92.5737 65.7448 92.6738 65.6953L93.6895 65.1797L94.7051 64.6797C95.7581 64.1562 96.9106 63.9864 98.0801 64.2578L100.111 64.7266C100.661 64.8538 101.212 64.9285 101.752 64.9453L103.783 65.0078C104.601 65.0338 105.415 65.1364 106.221 65.3359L107.236 65.6016L108.252 65.8516C108.696 65.9619 109.137 65.9828 109.564 65.9297L110.58 65.8047L111.58 65.6797C112.291 65.5915 113.01 65.5278 113.721 65.4766L115.752 65.3203C116.528 65.2645 117.304 65.2733 118.08 65.3359L120.111 65.4922C120.478 65.5219 120.864 65.4752 121.283 65.3203L123.314 64.5703C124.465 64.1436 125.666 64.1587 126.799 64.6172L127.814 65.0391L128.83 65.4453C129.461 65.7005 130.093 65.9309 130.721 66.1328L132.752 66.7891C133.316 66.9703 133.874 67.0906 134.424 67.1641L136.455 67.4453C136.475 67.448 136.507 67.448 136.564 67.4297C136.636 67.4056 136.778 67.3353 136.971 67.1797L137.986 66.3672L139.002 65.5391C139.902 64.8142 140.954 64.3072 142.127 64.2109L143.143 64.1172L144.143 64.0391C145.435 63.933 146.601 64.4038 147.564 65.1484L148.58 65.9453L149.393 66.5703L150.205 65.9609L151.221 65.1953C151.766 64.781 152.423 64.441 153.174 64.3359C153.558 64.2825 153.937 64.2893 154.299 64.3516L155.33 64.6953L157.361 65.6641C157.654 65.8045 157.858 65.8193 158.049 65.7734L160.08 65.2734C161.134 65.0167 162.195 65.0693 163.221 65.4141L165.252 66.1016C165.612 66.2223 165.943 66.2424 166.268 66.1797L168.299 65.7734C169.258 65.5888 170.223 65.6212 171.174 65.8516L172.189 66.1016L173.205 66.3359C173.713 66.4592 174.212 66.5203 174.705 66.5078L176.736 66.4453C177.561 66.4236 178.388 66.5034 179.205 66.6641L181.236 67.0703C181.252 67.0734 181.375 67.1074 181.705 66.8672L183.736 65.3984C184.333 64.9641 185.074 64.6357 185.924 64.6328C186.349 64.6316 186.745 64.7196 187.111 64.8516L188.111 65.3828L189.127 66.1172L190.143 66.8359C190.505 67.097 190.685 67.0945 190.752 67.0859L191.768 66.9609L192.783 66.8203C193.455 66.7347 194.127 66.6585 194.799 66.5703L195.814 66.4297L196.83 66.3047C197.384 66.2319 197.95 66.0952 198.518 65.9141L199.533 65.6016L200.549 65.2734C201.347 65.019 202.156 64.8461 202.971 64.7578L205.002 64.5391C205.855 64.4469 206.715 64.466 207.564 64.6016L208.58 64.7578L209.596 64.9297C210.357 65.0515 211.123 65.2226 211.877 65.4453L212.893 65.7422L213.893 66.0391C214.426 66.1965 214.956 66.2922 215.471 66.3203L216.486 66.3672L217.502 66.4297C217.696 66.4402 217.97 66.3942 218.361 66.1484L220.393 64.8672C221.533 64.1521 222.862 63.9311 224.189 64.4297L225.205 64.8203L226.221 65.1953C226.724 65.3841 227.208 65.4942 227.674 65.5234L229.705 65.6484C230.606 65.7057 231.489 65.9157 232.346 66.2578L234.377 67.0703C234.507 67.1219 234.597 67.1294 234.783 67.0391L236.814 66.0391C237.77 65.5717 238.797 65.3384 239.861 65.4141L241.893 65.5703C242.659 65.6258 243.428 65.7384 244.189 65.8984L245.205 66.1016L246.221 66.3203C246.342 66.3459 246.521 66.3465 246.83 66.1641L248.861 64.9766L249.908 64.5391C250.283 64.4477 250.682 64.4179 251.096 64.4609C251.905 64.5451 252.602 64.8923 253.158 65.3359L254.158 66.1484L255.174 66.9609L256.08 66.5234L257.096 66.0234C258.075 65.5314 259.136 65.294 260.236 65.4141L261.252 65.5391L262.268 65.6484C262.705 65.6968 263.158 65.6666 263.611 65.5547L265.643 65.0547C266.582 64.824 267.535 64.7794 268.486 64.9453L269.502 65.1328L270.518 65.3047C270.895 65.3706 271.277 65.3525 271.674 65.2422L273.705 64.6797C275.089 64.2975 276.393 64.681 277.455 65.4609L278.455 66.2109L279.471 66.9453C279.866 67.236 280.106 67.2635 280.221 67.2578L281.236 67.2109L282.252 67.1484C282.964 67.1119 283.68 67.0994 284.393 67.1016H286.424C286.871 67.1025 287.333 67.0411 287.814 66.8828L288.83 66.5391L289.846 66.2109C290.404 66.0266 290.945 65.7899 291.455 65.5078L292.393 64.9922L293.314 64.4766C294.042 64.0738 294.793 63.7447 295.549 63.5078L296.471 63.2109L297.393 62.9297C298.53 62.5738 299.705 62.713 300.799 63.0703L302.08 63.4766L302.846 63.7266L303.143 63.0547L303.643 61.8516C304.136 60.6667 304.993 59.6517 306.314 59.1953L307.299 58.8516L308.299 58.5234C308.723 58.3768 309.088 58.1563 309.408 57.8828L310.174 57.2266L310.955 56.5547C311.358 56.2097 311.715 55.8234 312.033 55.3984L313.252 53.7734C313.657 53.2318 314.065 52.6803 314.471 52.1328L315.096 51.3047L315.705 50.4922C315.858 50.2866 315.944 50.0345 315.955 49.6953L315.986 48.6172L316.033 47.5391C316.074 46.3291 316.523 45.2414 317.33 44.3516L318.83 42.6953C319.084 42.4156 319.198 42.1597 319.236 41.8984L319.393 40.8672L319.533 39.8516C319.617 39.2829 319.659 38.7043 319.643 38.1328L319.58 36.0703C319.56 35.3869 319.541 34.7046 319.518 34.0234L319.471 32.9922L319.439 31.9609C319.415 31.2603 319.403 30.5453 319.393 29.8203L319.377 28.7578L319.361 27.6797C319.356 27.3654 319.266 27.0921 319.08 26.8203L317.861 25.0391C317.604 24.6628 317.271 24.3294 316.846 24.0391L315.908 23.3984L314.986 22.7578C314.09 22.1453 313.376 21.3393 312.955 20.3203L312.58 19.4141L312.189 18.4922C312.006 18.0491 311.779 17.6351 311.486 17.2578L310.268 15.6953C310.011 15.3652 309.705 15.0925 309.346 14.8672L307.658 13.8047C307.031 13.4117 306.43 12.9873 305.861 12.5234L305.096 11.8984L304.346 11.2891C303.911 10.9341 303.441 10.6024 302.955 10.3047L302.127 9.78906L301.283 9.27344C300.762 8.95369 300.214 8.64177 299.658 8.35156L298.768 7.88281L297.877 7.42969C297.256 7.10539 296.616 6.75466 295.971 6.38281L295.033 5.83594L294.096 5.30469C293.721 5.08876 293.347 4.96081 292.955 4.92969L290.861 4.77344C290.538 4.74884 290.189 4.79467 289.799 4.97656L288.783 5.46094L287.768 5.92969C286.909 6.33032 286.01 6.59398 285.096 6.69531L284.08 6.82031L283.064 6.92969C281.946 7.05249 280.874 6.80542 279.893 6.28906L278.877 5.74219L277.861 5.21094C277.394 4.96461 276.972 4.85299 276.596 4.82031L275.58 4.72656L274.564 4.64844C273.925 4.59432 273.282 4.55875 272.643 4.53906L270.611 4.47656C270.057 4.45956 269.498 4.48701 268.939 4.57031L266.908 4.88281C266.238 4.98322 265.563 5.07319 264.893 5.17969L263.877 5.35156L262.861 5.50781C262.047 5.63708 261.227 5.67724 260.408 5.63281L259.393 5.58594L258.377 5.52344C257.675 5.48531 256.969 5.43338 256.268 5.36719L254.236 5.17969C253.564 5.11633 252.893 5.05222 252.221 4.99219L250.189 4.80469C249.726 4.76344 249.26 4.8073 248.783 4.91406L247.768 5.13281L246.752 5.36719C245.941 5.54951 245.12 5.64123 244.299 5.64844L243.283 5.66406H242.268C241.672 5.66913 241.068 5.71131 240.471 5.78906L239.455 5.92969L238.439 6.05469C237.311 6.19993 236.228 5.96463 235.236 5.44531L233.205 4.38281C233.001 4.27543 232.906 4.28113 232.799 4.32031L230.768 5.07031C229.744 5.44934 228.665 5.54461 227.596 5.30469L226.58 5.07031L225.564 4.85156C225.467 4.83033 225.315 4.81068 225.018 4.99219L224.002 5.61719L222.986 6.22656C221.974 6.84387 220.826 7.1488 219.611 6.96094L217.58 6.64844C216.944 6.55021 216.309 6.47506 215.674 6.41406L214.658 6.30469L213.643 6.21094C212.947 6.14424 212.244 6.06326 211.549 5.97656L209.518 5.72656C208.94 5.65474 208.359 5.63438 207.783 5.64844L206.768 5.66406L205.752 5.69531C205.234 5.70841 204.706 5.77689 204.174 5.91406L202.143 6.44531C200.824 6.78303 199.564 6.45254 198.502 5.74219L196.471 4.39844C196.053 4.11967 195.753 4.04405 195.533 4.03906L193.502 4.00781Z" fill="#FF613E"/>
</svg>
