<svg width="487" height="311" viewBox="0 0 487 311" fill="none" xmlns="http://www.w3.org/2000/svg">
<mask id="mask0_306_598" style="mask-type:alpha" maskUnits="userSpaceOnUse" x="-247" y="-53" width="998" height="369">
<rect x="-247" y="-53" width="998" height="369" fill="url(#paint0_linear_306_598)"/>
</mask>
<g mask="url(#mask0_306_598)">
<path opacity="0.5" d="M302.182 187.983C298.298 191.478 295.327 194.056 293.54 195.572C290.532 198.126 289.484 200.725 288.481 202.564C287.666 204.058 286.983 205.776 285.737 208.369C284.269 211.421 283.894 213.275 283.379 215.504C282.284 220.247 282.176 223.961 282.517 226.514C282.774 228.433 284.183 229.85 285.627 236.962C286.394 240.735 286.686 241.962 286.785 247.388C286.842 250.555 287.225 252.012 287.471 254.215C287.984 258.803 286.298 262.056 285.709 263.88C285.111 265.729 284.583 267.502 283.285 269.713C282.195 271.57 280.955 273.291 280.242 274.766C279.558 276.18 278.893 277.51 278.622 278.641C278.552 278.928 278.79 279.275 279.011 279.499C279.851 280.351 281.529 280.846 283.176 281.878C283.827 282.286 285.303 282.71 287.65 283.566C290.328 284.544 292.613 284.871 298.352 284.897C303.363 284.919 312.634 284.583 318.066 284.53C324.808 284.466 326.789 284.968 328.183 285.359C332.445 286.556 337.376 285.709 338.756 284.534C340.2 283.304 339.739 281.299 339.863 279.51C339.926 278.604 340.034 273.834 339.986 266.754C339.946 260.741 336.564 257.623 335.063 256.558C333.697 255.588 331.854 256.043 327.134 256.113C322.283 256.186 317.188 259.03 316.674 259.105C316.163 259.18 316.059 255.676 315.863 251.241C315.718 247.942 315.323 242.986 315.761 239.307C315.994 237.346 316.596 234.872 316.792 232.158C317.171 226.919 314.935 223.493 313.782 221.358C313.368 220.591 313.361 219.518 313.434 218.319C313.528 216.764 314.682 215.791 316.491 214.051C317.878 212.717 321.816 212.019 324.701 211.057C330.097 209.258 332.625 206.229 333.534 205.003C335.052 202.957 335.814 201.572 336.649 198.782C337.233 196.828 337.189 195.831 337.531 195.56C337.9 195.269 339.24 197.965 341.707 202.438C343.074 204.918 344.999 207.639 346.604 209.647C350.979 215.117 354.245 215.538 356.402 216.199C359.578 217.173 361.747 216.473 365.409 215.011C371.428 212.608 375.385 210.344 375.971 209.905C377.858 208.491 379.543 204.582 380.705 201.671C381.24 200.33 382.05 199.169 383.57 197.819C384.11 197.339 384.603 197.056 384.922 196.932C386.011 196.507 385.339 199.742 386.171 207.49C386.505 210.599 386.224 212.444 385.932 213.765C385.607 215.228 384.368 217 382.269 219.54C381.008 221.066 379.102 222.857 377.424 224.754C375.745 226.651 374.289 228.544 372.956 230.49C371.623 232.436 370.458 234.378 369.349 236.64C367.041 241.344 365.975 245.193 365.729 248.22C365.374 252.592 366.263 256.566 367.046 259.038C368.097 262.358 369.352 263.489 370.382 265.276C371.315 266.895 371.756 268.828 371.857 270.914C371.949 272.796 371.073 274.03 369.436 281.53C368.756 284.644 369.208 286.193 369.477 286.804C370.323 288.728 373.892 290.743 377.43 291.977C381.151 293.275 384.936 293.99 388.28 294.454C390.354 294.743 393.226 294.871 395.915 294.777C398.604 294.682 401.031 294.294 404.248 293.414C407.464 292.535 411.396 291.176 414.514 290.184C419.784 288.508 422.94 287.913 424.944 287.62C429.879 286.899 432.504 286.345 433.927 285.44C435.518 284.428 435.596 282.523 435.844 277.22C435.915 275.711 435.212 274.437 433.991 272.53C432.636 270.416 429.929 267.631 427.209 264.715C425.942 263.357 424.917 262.422 423.038 260.809C420.406 258.551 416.593 257.03 413.58 255.682C410.831 254.453 407.915 253.598 405.744 251.806C404.705 250.949 403.691 248.117 401.114 244.432C399.779 242.523 399.66 241.142 399.438 239.428C398.883 235.146 400.778 231.88 401.764 230.62C402.524 229.649 403.673 228.93 404.485 227.925C405.661 226.47 406.712 224.037 407.965 222.579C408.955 221.427 410.098 220.839 411.03 220.224C411.982 219.596 413.576 219.465 415.342 218.803C417.207 218.103 420.239 216.623 421.89 216.081C423.081 215.689 424.12 214.614 425.249 213.167C426.218 211.927 427.015 210.789 428.166 209.636C429.148 208.652 430.492 207.068 431.746 205.226C433.109 203.223 432.754 201.084 433.244 199.658C433.621 198.556 434.661 197.454 435.938 196.42C437.339 195.286 439.271 195.241 440.449 195.021C441.918 194.746 443.781 194.653 448.208 194.651C451.092 194.65 455.196 194.606 456.924 194.407C458.517 194.224 460.938 193.576 462.782 192.719C464.288 192.018 465.987 190.834 470.298 188.459C472.805 187.077 473.742 185.439 474.577 184.359C475.263 183.473 475.754 182.497 476.562 181.466C477.645 180.087 478.84 178.531 480.067 176.811C481.437 174.889 481.882 173.818 482.668 172.47C483.533 170.984 484.774 168.287 485.317 165.17C485.804 162.375 485.321 159.311 484.39 157.418C483.639 155.891 483.115 154.257 482.575 152.856C481.908 151.127 479.587 150.379 478.337 149.716C475.758 148.348 472.821 149.247 471.789 149.589C470.748 149.935 466.431 153.968 463.845 156.403C462.913 157.281 462.668 158.461 462.201 159.467C461.615 160.73 460.806 161.991 460.118 162.925C459.454 163.826 458.355 164.201 457.154 165.008C455.43 166.166 453.989 168.905 453.645 170.253C453.561 170.578 453.401 170.817 453.229 170.845C452.172 171.017 451.88 168.525 449.632 163.853C448.461 161.42 448.935 158.568 449.131 152.154C449.313 146.179 449.326 134.672 449.352 128.6C449.378 122.528 449.329 122.237 449.304 119.32C449.279 116.403 449.279 110.869 449.352 107.8C449.456 103.431 450.306 102.084 450.749 100.93C451.136 99.9211 451.533 98.945 451.926 97.6704C452.329 96.3611 452.466 95.0734 452.882 93.3083C452.985 92.8698 452.957 92.4757 452.884 92.5426C452.413 92.9753 452.467 94.1305 452.248 95.3022C451.786 97.0563 451.195 100.922 450.753 105.819C450.603 107.9 450.603 109.162 450.603 110.463" stroke="#FF613E" stroke-width="2" stroke-linecap="round"/>
<path d="M452.258 92.8111C453.132 82.326 453.436 76.4877 453.143 75.7044C452.717 74.5672 451.722 73.8884 450.668 72.9323C449.602 71.9652 449.416 70.7023 449.292 69.5012C449.102 67.6689 449.072 65.7039 447.997 60.7158C447.52 58.4999 446.865 57.1207 446.645 56.1418C446.464 55.3326 446.13 51.075 445.789 44.0739C445.639 40.9986 445.156 38.9174 443.791 33.8616C442.426 28.8059 440.096 20.8449 438.653 16.2341C436.875 10.5545 435.448 8.58283 434.028 6.89341C432.136 4.64145 430.199 3.72271 428.219 2.81585C425.713 1.66811 422.606 1.41622 419.698 1.09775C418.058 0.918092 416.063 0.924911 411.761 1.65231C407.459 2.37971 400.906 3.88452 394.302 4.82963C387.698 5.77473 381.242 6.11453 377.601 6.36239C373.32 6.65376 372.484 7.10008 372.092 7.56418C370.47 9.48906 368.956 12.7839 368.072 14.0843C367.194 15.3759 366.261 17.2881 364.276 22.5726C362.285 27.8744 362.384 29.5531 361.942 31.0476C361.102 33.8892 360.078 36.0254 359.735 37.7612C358.834 42.3207 359.877 43.6745 360.442 45.0234C361.113 46.6256 361.887 48.0404 363.379 50.1431C365.318 52.8754 368.106 54.0685 369.682 55.1018C370.719 55.7817 371.887 56.3779 373.188 56.5515C374.951 56.7867 377.564 55.7924 379.171 55.4254C380.402 55.1441 381.498 54.6157 383.042 54.1023C385.118 53.4118 386.793 53.0476 388.606 52.6306C389.415 52.4446 390.275 52.115 392.565 51.3126C397.406 49.616 401.691 47.655 403.945 47.1409C405.947 46.6841 407.967 45.9898 413.892 43.4693C416.686 42.2807 419.679 41.2856 421.926 40.495C423.185 40.0517 424.4 39.9059 425.848 39.7095C427.552 39.4783 428.716 39.1204 429.672 39.266C430.067 39.3263 430.19 39.7029 430.29 40.0714C431.06 42.9305 430.584 47.349 430.879 48.7501C431.044 49.5398 430.686 50.3939 430.197 51.1037C429.398 52.2626 427.654 53.0888 425.766 54.6796C421.772 58.0434 418.79 59.1169 416.006 59.9575C414.212 60.4993 412.112 60.6938 410.195 61.1343C407.085 61.8487 402.936 62.9473 401.711 63.3893C399.599 64.1511 397.84 65.545 396.195 66.599C394.485 67.6946 392.739 68.1457 389.022 69.5152C387.191 70.1898 383.541 70.0109 379.302 69.9867C377.343 69.9754 376.264 69.8638 375.065 69.9609C373.507 70.0869 372.49 71.9144 371.553 73.4376C370.497 75.1537 369.839 79.0574 369.467 81.7457C369.376 82.4011 369.442 83.3292 369.563 83.9742C369.684 84.6192 369.927 84.959 370.513 85.1341C373.25 85.9512 376.673 85.4562 383.337 84.7766C387.511 84.351 393.157 82.7378 397.223 81.892C401.29 81.0462 403.571 80.755 405.621 80.6049C407.67 80.4549 409.417 80.4549 410.414 80.649C411.412 80.8432 411.606 81.2316 411.754 81.6501C412.329 83.2682 412.639 84.7619 412.933 87.011C413.729 93.099 412.836 94.6175 412.591 96.921C412.425 98.4945 412.247 99.7659 412.052 101.459C411.861 103.118 411.073 104.523 410.119 105.605C409.55 106.25 408.429 106.49 404.852 106.735C401.863 106.939 396.47 106.882 391.194 107.32C385.918 107.758 380.918 108.583 378.197 109.008C375.191 109.478 374.593 109.482 371.967 109.555C365.267 109.743 360.375 109.677 359.616 109.849C356.917 110.459 351.758 109.683 349.493 108.579C346.411 107.077 342.24 106.444 338.516 106.441C336.52 106.44 334.497 108.395 331.745 110.333C329.937 111.607 328.946 112.469 328.11 113.645C327.359 114.703 326.983 116.047 326.369 117.323C325.868 118.362 324.877 119.236 323.821 119.899C323.253 120.256 322.376 120.466 321.3 120.368C319.545 120.21 318.599 118.706 317.399 117.602C315.491 115.845 313.647 114.879 312.349 114.315C310.225 113.391 308.311 112.528 305.446 111.523C301.513 110.142 298.545 109.042 294.97 107.73C291.812 106.57 286.008 104.185 282.813 102.936C279.248 101.542 278.393 101.441 277.512 101.295C276.611 101.145 273.609 100.853 269.444 100.731C264.384 100.583 258.88 100.654 257.603 100.949C256.851 101.123 255.985 101.488 253.672 101.685C248.707 102.106 244.128 101.831 241.972 102.198C240.101 102.517 238.972 103.105 237.085 103.816C235.798 104.301 234.706 105.164 233.674 105.948C232.512 106.831 231.229 109.074 230.021 110.801C229.538 111.492 228.094 114.021 225.962 117.572C224.675 119.717 224.308 121.438 223.916 122.882C223.647 123.873 223.231 126.086 221.962 130.579C220.177 136.899 218.569 140.956 218.374 141.837C218.058 143.257 217.981 144.828 218.004 146.764C218.018 148.011 219.152 148.802 219.987 149.71C221.034 150.847 223.509 152.668 224.987 153.854C226.084 154.733 228.798 154.057 233.239 152.319C235.48 151.442 238.845 146.581 240.532 143.738C241.702 141.765 243.179 140.133 243.794 139.078C244.59 137.711 245.382 136.114 246.537 135.447C248.173 134.502 250.384 134.343 256.984 134.341C259.474 134.341 261.316 135.025 264.548 135.81C265.712 136.092 267.829 136.495 271.738 137.739C276.925 139.391 280.149 141.155 281.248 141.838C284.704 143.987 287.202 147.37 288.827 149.242C290.849 151.571 292.895 154.389 294.367 156.106C295.547 157.481 296.817 159.046 298.363 161.398C299.929 163.779 300.3 165.666 301.331 167.212C302.072 168.324 302.902 169.006 303.537 169.324C305.45 170.282 307.168 169.108 307.438 168.935C308.209 168.443 306.534 170.864 306.362 172.434C306.163 174.244 306.043 175.718 305.75 178.29C305.526 180.255 304.966 182.873 304.597 184.546C304.523 184.891 304.474 185.183 304.401 185.454C304.327 185.726 304.23 185.968 303.983 186.66" stroke="#FF613E" stroke-width="2" stroke-linecap="round"/>
<path opacity="0.5" d="M381.242 69.7631C381.242 69.6808 383.176 65.7715 386.146 60.7147C386.751 59.6854 387.433 63.2758 387.784 64.1322C388.73 66.4418 390.627 61.2912 394.316 57.9959C395.174 57.2298 395.693 56.9705 396.029 56.9456C396.366 56.9207 396.53 57.1675 396.677 57.562C397.322 59.2987 397.156 60.5744 397.343 61.6316C397.435 62.1561 397.57 62.6475 398.169 62.4905C402.01 61.4821 402.886 58.3443 404.858 56.2039C406.217 54.7289 407.458 53.8092 408.105 53.4327C409.935 52.3667 408.583 58.7058 408.915 59.5797C408.999 59.8001 409.368 59.8302 409.722 59.8109C412.107 59.6807 414.768 57.0129 417.404 55.0607C419.114 53.7941 420.338 53.0213 421.09 52.5395C421.912 52.0124 421.218 54.4674 421.236 56.169C421.24 56.5221 421.545 56.5891 421.836 56.6109C422.497 56.5916 423.166 56.4669 423.788 56.2188C424.121 56.053 424.492 55.8062 425.122 55.4272" stroke="#FF613E" stroke-width="2" stroke-linecap="round"/>
<path d="M387.475 52.9336C388.835 53.426 391.748 54.7611 393.41 54.7623C395.035 54.7635 396.732 53.8087 398.232 53.1854C399.373 52.7115 400.517 51.6919 401.619 50.8393C402.68 50.0181 403.799 48.9482 404.816 48.4901C405.77 48.0604 406.543 49.7722 410.064 49.9629C413.637 50.1564 416.388 47.9521 418.154 46.9337C419.47 46.1749 420.3 45.4141 420.776 45.2882C423.116 45.8279 425.865 45.6634 427.256 45.0619C427.652 44.8743 428.064 44.6686 428.488 44.332" stroke="#FF613E" stroke-width="2" stroke-linecap="round"/>
<path d="M421.382 11.9199C420.93 12.2927 419.6 12.79 413.661 15.2932C409.777 16.9302 407.758 19.0642 406.825 19.5211C405.187 20.3221 402.524 19.6912 401.11 19.7105C399.72 19.7295 397.999 21.1398 397.137 21.9725C396.691 22.4034 397.778 23.0957 398.193 23.469C398.569 23.808 399.354 24.0107 401.892 24.2388C407.332 24.7278 411.405 24.634 412.358 24.8415C414.136 25.2285 415.643 25.8369 416.931 26.9371C417.457 27.3859 417.848 27.7505 418.427 27.9786C421.861 29.3314 427.276 28.1681 428.566 27.7953C429.454 27.5387 430.024 26.9227 430.397 26.3642C431.805 24.2531 430.984 21.1921 430.589 19.7186C429.855 16.9819 428.989 16.2456 428.201 15.4758C427.157 14.4573 425.713 13.8347 424.296 13.2307C424.003 13.1254 423.756 13.0842 423.485 13.0631C423.214 13.0419 422.926 13.0419 422.629 13.0419" stroke="#FF613E" stroke-width="2" stroke-linecap="round"/>
<path d="M403.612 142.065C391.046 155.703 383.883 164.874 382.8 168.355C381.951 171.084 381.944 173.628 381.825 177.459C381.751 179.841 382.557 182.374 383.213 184.462C383.471 185.283 383.946 185.478 384.488 185.597C386.91 186.126 388.822 184.638 391.024 183.552C396.156 181.023 402.205 181.773 405.495 180.921C407.401 180.427 408.715 179.678 409.603 179.87C411.638 180.309 413.271 183.305 415.215 185.013C417.232 186.784 419.702 189.11 421.33 191.819C423.183 194.905 425.042 199.79 426.978 201.498C427.839 202.258 428.453 203.048 428.801 205.122C429.576 209.739 428.307 213.417 427.148 214.383C425.26 215.957 423.663 217.441 421.462 218.335C417.835 219.808 414.46 217.218 412.749 216.445C411.893 216.057 411.971 214.743 411.817 213.855C411.459 211.779 408.033 211.413 405.402 210.639C402.983 209.927 399.298 208.933 397.155 209.166C395.387 209.357 395.332 205.539 395.215 202.753C395.106 200.162 394.171 198.03 393.284 196.324C392.358 194.541 389.458 194.849 381.971 194.694C378.664 194.625 376.535 193.92 374.365 193.688C372.156 193.452 371.036 191.524 369.679 190.325C367.138 188.08 365.924 183.017 364.804 180.849C363.3 177.937 362.135 175.898 361.01 173.881C360.035 172.133 360.193 168.863 360.001 165.414C359.704 160.108 361.118 158.248 362.356 155.503C363.711 152.502 366.068 148.115 367.001 146.173C367.979 144.137 369.857 142.078 371.641 139.674C373.417 137.281 375.044 135.345 377.02 133.325C378.457 131.856 380.459 130 382.245 128.564C383.935 127.206 385.571 125.589 387.352 124.075C388.871 122.784 390.679 121.948 392.113 121.053C397.188 117.885 399.73 136.859 400.9 139.155C401.152 139.65 401.439 140.272 401.482 140.894C400.675 143.068 399.59 143.996 398.935 144.652C398.585 145.002 398.202 145.385 397.111 146.244" stroke="#FF613E" stroke-width="2" stroke-linecap="round"/>
<path opacity="0.5" d="M403.74 30.7227C403.184 33.3512 402.628 35.9796 402.266 37.1821C401.904 38.3845 401.752 38.0812 401.573 37.6217C401.192 36.5556 400.933 35.6273 400.73 34.8393C400.577 34.3545 400.325 33.6973 399.758 32.5608" stroke="#FF613E" stroke-width="2" stroke-linecap="round"/>
<path opacity="0.5" d="M398.992 31.489C397.324 34.9768 395.656 38.4646 394.948 39.6801C393.402 42.3358 396.079 31.7034 396.337 30.5454C396.644 29.1646 395.827 33.37 395.343 35.0059C394.701 37.1779 393.279 39.7023 392.51 41.0831C392.33 41.4067 392.053 41.6445 391.822 41.5725C390.287 41.0947 390.316 38.339 389.778 36.5759C389.272 34.9184 388.426 33.5385 387.381 31.9041C387.058 31.3991 386.493 30.9376 386.081 30.6772C385.669 30.4168 385.365 30.4168 385.108 30.5431C382.221 31.9609 380.718 39.1815 380.482 41.0073C380.448 41.2697 380.911 41.3412 381.194 41.2669C382.52 40.9182 383.007 39.2029 383.825 37.6742C384.386 36.6249 384.541 35.3751 384.695 34.3809C384.762 33.9449 384.747 33.6396 384.62 34.1405C384.167 35.9384 383.829 37.5624 383.599 37.3388C383.521 35.6492 383.673 33.9949 383.928 33.2053C384.031 32.8201 384.082 32.4663 384.134 32.1017" stroke="#FF613E" stroke-width="2" stroke-linecap="round"/>
<path opacity="0.5" d="M68.3954 236.856C68.3954 236.95 68.3954 237.044 68.0416 239.664C67.6878 242.283 66.9803 247.425 66.5214 250.404C65.9586 254.058 65.4907 254.96 65.0869 255.459C64.1954 256.56 62.9205 257.008 61.9192 257.534C60.7011 258.173 59.2525 258.249 56.5887 258.227C55.1128 258.215 53.4917 257.251 51.629 256.917C50.3101 256.68 48.8658 256.631 47.7909 256.345C46.7069 256.057 45.6238 256.96 44.5988 257.889C43.3645 259.008 42.2416 259.581 41.4518 260.581C40.6428 261.604 41.424 263.39 41.6634 264.702C41.8917 265.953 42.1845 267.958 44.889 272.049C45.9351 273.631 47.7766 275.46 50.3496 277.848C52.9227 280.236 56.3192 283.019 58.3991 284.665C62.3538 287.795 65.3764 289.972 67.319 291.483C68.1168 292.104 68.3926 289.609 69.2496 288.891C70.183 288.108 71.4402 287.511 72.6317 286.155C73.8082 284.816 74.3478 283.794 75.1111 283.007C75.9237 282.169 76.4463 281.175 76.9702 279.959C77.5891 278.523 77.5899 276.655 77.7107 274.814C77.8185 273.171 77.6885 271.499 77.3326 271.118C76.4245 270.146 74.4993 270.5 73.5923 269.832C73.3742 269.671 73.2585 269.405 73.1856 269.118C72.5945 266.794 75.6801 262.412 76.3512 260.732C76.8491 259.486 77.3983 258.018 77.8758 256.683C78.4584 255.055 79.6341 253.589 80.7805 251.966C81.5527 250.873 82.1156 249.727 82.8304 248.7C83.6584 247.511 84.6401 246.296 85.2848 245.293C85.9375 244.278 86.69 243.294 87.2861 242.244C87.9669 241.045 88.4539 240.1 89.4288 238.197C90.0587 236.968 90.8841 236.238 91.2643 236.07C92.1738 235.668 92.5022 237.756 93.811 239.019C94.8373 240.01 95.8844 240.332 96.815 240.761C97.9063 241.264 98.9807 242.568 100.007 243.593C101.465 245.05 101.7 246.713 102.296 247.763C102.647 248.383 103.035 248.909 103.533 249.195C104.715 249.873 105.937 248.437 107.391 247.746C108.661 247.143 109.845 246.959 110.871 246.435C111.992 245.91 113.133 245.53 114.301 245.243C114.612 245.148 114.942 245.006 115.425 244.861" stroke="#FF613E" stroke-width="2" stroke-linecap="round"/>
<path d="M114.281 244.003C115.425 249.184 115.236 252.145 115.115 253.29C114.989 254.487 114.664 255.907 114.448 258.897C114.102 263.703 114.707 267.157 115.254 267.704C116.328 268.778 117.612 269.587 118.59 270.279C119.612 271.001 120.614 271.494 122.113 272.54C123.51 273.514 124.568 274.162 125.547 274.758C126.47 275.319 127.661 276.823 128.906 277.831C130.272 278.936 131.284 281.158 132.669 282.405C133.529 283.178 134.243 284.071 134.556 285.285C135.207 287.812 133.296 290.647 132.772 291.861C131.8 294.109 131.055 296.362 130.769 297.627C130.332 299.559 130.483 301.128 130.197 302.745C129.819 304.886 130.243 306.705 130.457 307.395C130.636 307.975 131.052 308.375 131.503 308.755C133.386 310.343 137.528 309.047 140.547 308.995C143.426 308.946 145.77 309.19 147.297 308.736C148.894 308.261 150.582 307.523 152.442 306.119C153.997 304.946 154.921 302.997 156.564 300.003C157.756 297.831 158.069 295.807 158.474 294.255C159.422 290.626 158.598 286.415 157.765 285.58C156.785 284.597 155.553 282.987 154.24 281.887C153.239 281.05 152.077 279.274 150.832 278.359C149.558 277.423 147.781 278.309 147.282 278.264C145.359 278.09 145.638 274.982 144.875 273.479C144.224 272.197 143.446 271.311 143.276 268.6C143.174 266.968 143.014 264.793 142.564 262.759C142.468 262.329 142.208 261.974 141.993 261.732C140.973 260.587 138.4 260.444 136.944 259.919C136.552 259.777 136.067 259.775 135.776 259.61C134.658 258.971 135.721 256.968 136.412 255.017C136.702 254.199 137.056 253.583 137.412 252.965C137.801 252.293 139.707 248.468 142.613 243.157C144.179 240.295 145.009 239.48 146.178 238.693C147.403 237.868 148.912 237.57 155.2 237.166C158.116 236.979 162.509 237.281 165.099 237.425C170.234 237.71 175.435 238.285 177.319 239.09C178.79 239.719 177.988 241.947 178.321 243.117C178.63 244.204 179.652 245.849 180.44 247.286C181.033 248.366 182.599 249.569 184.557 250.575C187.518 252.098 191.562 250.961 192.803 250.722C194.538 250.387 196.565 250.295 197.806 249.818C199.2 249.281 200.187 248.58 201.119 248.055C202.095 247.506 202.286 246.104 203.026 244.912C203.675 243.866 203.575 242.436 203.743 241.031C203.902 239.692 203.673 238.621 203.648 238.216C203.584 237.187 205.905 237.476 207.169 237.024C208.943 236.39 210.673 234.476 211.173 233.645C211.682 232.799 211.202 231.902 210.893 231.45C210.244 230.5 208.776 230.045 207.654 229.543C206.651 229.093 205.961 228.756 205.462 228.754C205.183 228.753 204.916 229.13 204.794 229.111C204.441 229.055 204.768 228.044 204.602 227.354C204.43 226.636 203.578 226.327 203.009 225.97C202.201 225.462 201.244 225.99 201.004 226.275C200.411 226.981 202.856 227.228 203.737 227.491" stroke="#7F301F" stroke-width="2" stroke-linecap="round"/>
<path d="M204.292 219.696C204.202 218.635 203.816 217.246 203.507 216.051C203.178 214.779 202.487 212.112 201.673 209.953C201.057 208.318 201.149 206.428 200.933 204.29C200.391 198.923 200.766 197.377 200.505 196.086C200.274 194.944 200.1 193.8 199.482 192.702C198.948 191.753 197.578 191.653 195.627 191.484C195.148 191.442 194.816 191.413 194.575 191.247C193.53 190.527 192.718 189.414 190.862 188.912C189.103 188.435 187.1 188.079 185.523 187.768C184.078 187.482 182.474 187.124 181.045 187.005C179.174 186.849 176.951 186.124 174.711 185.696C171.933 185.164 170.564 185.36 169.132 184.934C168.312 184.689 165.529 184.078 161.271 183.388C156.016 182.536 156.878 177.689 155.2 177.214C153.648 176.774 152.153 176.403 150.081 175.974C148.443 175.636 146.818 175.496 144.626 175.212C142.888 174.986 138.017 179.405 133.74 178.835C131.569 178.545 129.872 178.167 128.344 177.714C127.149 177.36 125.772 177.498 124.366 177.214C122.159 176.767 120.818 176.546 118.389 176.332C116.972 176.207 115.86 175.831 113.647 175.285C112.334 174.96 111.286 174.688 109.168 174.616C107.648 174.564 106.331 174.116 105.043 173.902C103.742 173.685 101.431 172.878 99.6834 172.496C97.1338 171.94 94.7038 172.115 92.8705 172.019C91.5841 171.952 90.0837 171.969 88.2482 172.256C86.3322 172.555 83.6996 172.924 82.4088 173.185C81.1829 173.433 79.9315 173.636 78.5506 173.9C77.0033 174.197 75.2657 174.067 73.0993 174.305C71.2393 174.509 69.7336 174.401 66.2843 174.496C63.2131 174.58 57.4572 174.591 54.3509 174.662C49.9056 174.764 47.062 175.162 42.9422 175.686C40.7749 175.961 39.5258 175.926 38.2857 176.21C37.1099 176.48 35.7147 176.878 34.4025 177.045C33.2366 177.194 31.9981 177.45 30.8045 177.711C29.5216 177.992 27.0092 179.208 25.0387 179.855C23.9237 180.221 24.0845 182.115 23.5362 184.109C22.1224 189.25 22.5092 192.862 22.7937 195.099C23.0491 197.108 23.5098 203.412 23.3912 207.108C23.3352 208.851 22.5606 211.697 22.1289 213.16C21.7572 214.419 22.7436 215.328 23.294 216.588C23.496 217.051 23.3669 217.795 23.2489 218.089C22.9208 218.906 20.851 217.953 17.7554 219.376C15.6992 220.321 15.0787 223.33 15.0037 224.903C14.9164 226.732 16.4081 228.808 16.9556 229.98C17.0875 230.263 17.3116 230.526 17.5503 230.696C18.6959 231.509 20.5508 230.772 21.743 230.486C22.0064 230.423 21.9374 229.92 21.9374 230.386C21.9374 233.818 22.412 234.958 23.0781 236.198C23.6569 237.275 24.602 238.197 25.1995 239.248C25.7113 240.149 26.4603 240.916 27.6031 241.513C28.6551 242.063 29.8424 242.443 30.8674 242.966C32.2834 243.69 33.702 243.872 34.9171 244.111C36.143 244.353 37.2757 244.873 38.3957 245.254C40.0173 245.807 42.2761 245.73 43.5183 245.851C44.8978 245.985 46.6131 245.782 47.8068 245.495C49.0127 245.206 50.0925 244.638 51.166 244.209C52.5154 243.67 53.286 242.64 54.1215 241.543C55.3162 239.976 57.0512 238.163 58.2891 236.542C59.0511 235.544 59.6729 234.54 60.4584 233.798C61.4623 232.849 63.1494 234.818 64.8155 235.248C66.0098 235.63 67.0576 235.868 67.7473 235.987C68.0597 236.058 68.2955 236.153 68.2526 236.822" stroke="#FF613E" stroke-width="2" stroke-linecap="round"/>
<path opacity="0.5" d="M24.9395 230.421C32.7702 229.996 40.6009 229.572 45.1302 229.353C50.648 229.086 52.0953 229.04 52.9509 228.826C55.9314 228.082 61.4198 228.371 64.4511 228.657C69.5126 229.134 71.3405 228.374 75.9305 228.3C78.0751 228.266 81.2839 228.894 84.1579 229.228C87.4783 229.615 92.9828 229.42 96.3128 229.136C98.2526 228.97 99.5499 228.468 101.007 228.23C102.459 227.993 103.744 227.422 105.081 227.228C106.298 227.052 106.94 229.177 107.514 230.178C108.153 231.293 108.324 232.465 108.848 233.561C109.402 234.72 109.705 235.896 110.182 236.826C110.687 237.81 111.515 238.755 112.397 239.756C113.325 240.81 113.896 241.805 114.755 242.521C115.674 243.287 116.992 243.569 118.349 244.117C121.508 245.394 123.994 245.476 127.919 245.55C129.725 245.584 130.764 244.91 131.861 244.147C132.916 243.412 133.815 242.909 134.578 242.098C135.468 241.154 136.196 240.098 137.008 239.121C138.018 237.904 139.104 236.525 139.606 235.523C140.214 234.311 140.536 233.142 140.774 231.927C141.083 230.348 141.394 229.14 141.489 227.425C141.625 224.996 141.634 221.089 141.538 217.497C141.496 215.904 140.825 214.608 140.064 212.656C139.014 209.962 138.586 208.936 138.037 207.934C137.424 206.815 136.919 205.602 136.156 204.551C135.441 203.566 134.489 202.883 133.584 202.12C132.621 201.308 131.442 200.596 130.013 200.093C127.9 199.35 125.729 199.166 123.937 198.806C122.715 198.561 121.484 198.638 119.839 198.971C118.691 199.203 117.67 199.778 116.834 200.684C115.976 201.614 115.191 202.446 114.617 203.542C114.064 204.599 113.808 205.828 113.449 207.139C113.026 208.687 113.187 210.354 112.148 214.846C110.953 220.013 105.854 215.411 103.713 215.127C101.984 214.897 100.47 214.745 97.2599 214.744C94.9347 214.743 91.9908 215.077 88.5457 215.149C82.8807 215.267 81.7442 215.648 78.8424 215.863C77.7802 215.941 75.3259 216.126 72.0159 216.149C67.8924 216.179 62.5434 216.363 60.019 216.459C57.8559 216.541 55.679 216.935 54.439 217.031C51.9696 217.221 47.7711 217.364 46.1987 217.531C43.3975 217.829 42.1476 217.887 40.7167 218.008C40.0977 218.079 36.3153 218.174 30.9083 218.293C28.992 218.364 28.7562 218.459 27.7985 218.699" stroke="#FF613E" stroke-width="2" stroke-linecap="round"/>
<path d="M82.4055 215.27C82.8772 213.194 83.2146 211.794 83.3811 211.082C83.5667 210.288 83.5491 206.252 83.5727 200.655C83.5877 197.075 83.5033 194.691 83.2639 193.308C83.0466 192.054 82.6914 190.642 82.502 189.258C82.4062 188.558 82.0253 188.016 81.7408 187.588C80.4489 185.644 75.8356 186.871 74.6434 186.776C72.1662 186.577 68.7368 186.677 67.4245 186.941C67.1181 187.003 66.8298 186.966 66.6604 186.801C65.4342 185.605 65.3975 183.063 64.6828 182.133C64.014 181.262 62.7329 181.011 61.0912 180.655C59.133 180.23 56.4518 179.675 53.858 180.194C50.0737 180.951 50.9598 184.624 50.6481 185.818C50.3564 186.935 50.0992 187.961 49.839 189.011C49.58 190.057 47.6748 189.064 44.7265 189.014C43.054 188.986 41.9568 189.776 40.7168 190.038C39.5632 190.281 38.9063 192.149 38.2845 193.89C37.0614 197.315 37.2367 199.154 37.0437 200.636C36.8139 202.401 36.6163 203.828 36.5898 206.941C36.6606 207.782 36.8021 208.442 37.1109 209.349C37.4197 210.255 37.8914 211.387 38.5204 212.696" stroke="#FF613E" stroke-width="2" stroke-linecap="round"/>
<path d="M45.8086 199.26C44.6649 203.446 44.7593 205.638 45.2582 206.832C45.8298 208.199 46.9979 209.261 47.6876 210.121C48.4174 211.032 49.5195 211.551 50.6881 212.218C51.8352 212.874 53.3762 213.074 54.8093 213.435C56.2834 213.805 59.6031 213.984 62.8344 213.32C64.3833 213.001 65.5783 211.748 66.5803 210.961C67.4713 210.261 67.8197 208.938 68.3922 207.913C69.1542 206.549 69.3464 205.127 69.4422 203.744C69.5359 202.391 69.4922 201.075 68.8261 199.908C68.2135 198.833 66.3531 198.548 65.2531 197.857C64.2151 197.205 62.259 196.833 57.8827 196.781C53.8179 197.4 52.3899 197.688 50.0634 197.806C48.8777 197.83 46.9436 197.83 44.9508 197.83" stroke="#FF613E" stroke-width="2" stroke-linecap="round"/>
<path d="M53.3857 198.403C53.8132 200.066 54.2892 201.399 54.6708 202.402C54.8529 202.88 55.1469 203.309 55.5743 203.618C56.0182 203.939 56.8122 203.835 57.5498 203.74C58.6708 203.597 58.7206 201.79 58.9365 200.174C59.0184 199.56 58.9608 198.706 58.9608 198.669C58.9608 196.794 59.198 201.354 59.4589 201.783C59.731 202.229 60.8591 202.073 62.3386 201.953C62.6742 201.925 62.9576 201.882 63.1977 201.763C63.8682 200.978 64.0583 200.168 64.1776 199.669C64.2026 199.406 64.1555 199.123 63.964 198.403" stroke="#FF613E" stroke-width="2" stroke-linecap="round"/>
<path opacity="0.5" d="M96.8416 179.961C94.177 178.82 92.7504 178.151 91.5332 178.031C90.2835 177.908 89.3654 179.003 88.3876 179.791C87.4314 180.562 86.3635 181.053 85.5751 181.959C84.8116 182.835 84.9769 187.074 85.2377 189.677C85.3515 190.812 86.2119 191.631 87.1175 192.371C88.0838 193.16 89.8285 193.538 91.4753 194.229C92.1335 194.505 93.4951 194.685 95.3041 194.543C97.2271 194.393 98.1224 192.735 98.8643 191.64C99.6967 190.411 99.7949 189.164 99.7728 186.333C99.7609 184.818 98.5598 183.589 98.3904 182.395C98.3668 182.108 98.3196 181.825 98.201 181.585C98.0823 181.345 97.8937 181.156 97.4134 180.961" stroke="#FF613E" stroke-width="2" stroke-linecap="round"/>
<path d="M94.9837 184.821C94.7007 184.397 94.4176 183.972 94.1774 183.871C93.9373 183.771 93.7486 184.007 93.6042 184.27C93.4598 184.533 93.3655 184.816 93.4112 185.127C93.457 185.437 93.6457 185.768 93.908 185.914C94.1703 186.061 94.5005 186.014 94.765 185.848C95.813 185.191 95.5554 183.825 95.4611 183.087C95.4196 182.763 95.1781 182.586 94.9394 182.488C94.7007 182.391 94.4176 182.391 94.1774 182.509C93.1634 183.007 92.7937 184.15 92.2219 185.198C92.0555 185.503 92.1247 185.956 92.2426 186.222C92.4474 186.684 93.3112 186.68 94.1439 186.633C94.7562 186.598 95.1724 186.205 95.4818 185.731C95.6514 185.471 95.6498 185.067 95.6269 184.755C95.604 184.443 95.5097 184.207 95.3196 184.062C95.1295 183.917 94.8464 183.869 94.5827 183.963C94.319 184.057 94.0831 184.292 93.9616 184.673C93.8401 185.054 93.8401 185.573 93.958 185.77C94.076 185.966 94.3118 185.825 94.4333 185.61C94.5548 185.396 94.5548 185.113 93.9831 184.964" stroke="#FF613E" stroke-width="2" stroke-linecap="round"/>
<path opacity="0.5" d="M35.6604 183.822C34.9057 183.067 34.0923 182.678 33.2604 182.796C31.6153 183.029 30.7116 184.722 29.8025 185.558C28.792 186.487 28.0871 187.867 27.7755 189.225C27.3822 190.937 27.6539 192.682 28.0099 193.181C28.7127 194.168 30.0797 194.208 31.3906 194.518C31.7494 194.59 32.1268 194.637 32.6278 194.662C33.1288 194.686 33.7421 194.686 34.3739 194.686" stroke="#FF613E" stroke-width="2" stroke-linecap="round"/>
<path d="M34.2319 187.823C34.0904 188.483 33.9488 189.143 33.9939 189.554C34.0389 189.965 34.2747 190.107 34.5613 190.18C34.8479 190.253 35.1781 190.253 35.4662 190.135C35.7542 190.017 35.9901 189.781 36.1116 189.353C36.2331 188.925 36.2331 188.312 36.0916 187.972C35.9501 187.633 35.667 187.585 35.4505 187.679C35.2339 187.773 35.0924 188.008 34.9466 188.394" stroke="#FF613E" stroke-width="2" stroke-linecap="round"/>
<path opacity="0.4" d="M135.87 180.122C135.468 182.993 135.404 184.73 135.679 185.179C136.175 185.988 137.257 187.019 141.291 188.816C143.233 189.68 144.045 189.459 145.058 189.59C146.961 189.837 147.727 189.287 150.302 189.214C151.786 189.172 152.34 188.65 154.321 187.637C155.405 187.083 155.936 186.245 156.401 185.446C156.873 184.636 157.301 183.779 157.331 180.324C157.345 178.767 156.058 177.776 155.275 177.252C154.549 176.767 153.826 176.527 152.869 176.193C151.424 175.691 149.883 175.57 147.498 175.366C142.677 174.954 141.441 175.944 140.268 176.74C139.468 177.283 138.744 178.319 138.293 179.017C137.845 179.71 137.612 180.322 137.422 181.047C137.378 181.222 137.321 181.366 137.248 181.555C137.176 181.743 137.09 181.973 136.74 182.558" stroke="#FF613E" stroke-width="2" stroke-linecap="round"/>
<path d="M204.082 219.011C199.153 212.372 198.402 211.504 197.646 210.907C196.755 210.202 194.673 209.535 193.296 209.093C192.623 208.877 190.412 208.919 188.614 209.164C187.23 209.353 186.309 209.613 185.379 209.817C184.473 210.016 183.756 210.426 182.25 211.134C181.087 211.681 180.507 212.367 179.983 212.933C179.406 213.556 179.171 214.454 179.011 215.166C178.576 217.098 178.908 220.574 178.952 221.66C178.992 222.638 179.226 223.387 179.257 224.055C179.298 224.942 177.58 224.724 176.002 224.97C173.376 225.38 172.127 224.581 170.115 224.203C169.008 223.996 167.034 224 165.442 223.797C163.945 223.607 162.962 223.363 161.817 223.029C160.443 222.628 159.598 222.665 158.554 222.55C157.264 222.408 156.061 222.26 155.015 222.216C153.969 222.172 152.814 222.028 151.16 221.955C149.797 221.894 148.057 221.825 144.267 221.781C143.443 221.767 143.184 221.738 142.936 221.694C142.688 221.651 142.459 221.593 141.874 221.534" stroke="#FF613E" stroke-width="2" stroke-linecap="round"/>
<path d="M123.248 175.443C124.627 171.885 126.006 168.327 126.937 165.708C128.415 161.552 128.82 159.538 128.931 158.926C129.065 158.185 129.348 157.531 129.627 156.71C129.937 155.799 130.461 154.833 130.936 153.521C131.553 151.815 132.72 149.593 132.999 148.922C133.066 148.758 133.083 148.561 133.207 148.448C134.028 147.701 135.699 148.444 136.59 148.862C137.669 149.368 138.925 149.669 142.235 150.158C145.455 150.632 146.976 150.646 148.263 150.869C149.656 151.11 150.657 151.314 152.773 151.718C153.934 151.94 154.95 151.956 156.481 152.095C157.624 152.199 158.517 152.291 159.88 152.429C160.692 152.512 161.469 152.68 162.431 152.806C163.375 152.929 164.421 153.098 165.274 153.279C165.95 153.422 166.845 153.488 167.807 153.752C169.77 154.292 171.188 154.434 172.073 154.769C172.72 155.015 173.34 155.382 174.022 155.591C174.995 155.89 176.011 156.605 177.669 157.331C178.576 157.728 179.411 158.387 180.166 159.045C180.726 159.533 181.003 160.144 181.878 161.965C182.475 163.207 183.009 163.905 183.274 164.63C183.622 165.58 183.761 166.44 184.068 168.081C184.389 169.801 185.068 171.144 185.447 172.583C185.743 173.706 185.879 174.437 186.047 175.162C186.202 175.833 186.519 176.471 186.854 177.515C187.088 178.244 187.355 178.951 187.551 179.744C187.937 181.306 188.275 182.6 188.609 183.492C188.925 184.332 189.445 185.248 189.849 186.236C190.145 186.96 190.503 187.615 190.949 188.216C191.172 188.452 191.396 188.759 191.618 189.107C191.73 189.261 191.84 189.372 191.787 189.318" stroke="#FF613E" stroke-width="2" stroke-linecap="round"/>
<path d="M181.924 159.816C181.841 158.822 181.453 156.588 180.923 156.001C180.487 155.517 179.644 155.333 178.654 154.831C177.324 154.156 175.742 153.826 172.544 152.885C170.464 152.273 166.759 151.311 164.607 150.702C161.206 149.742 160.447 149.453 158.348 148.799C156.538 148.235 153.987 147.892 152.744 147.642C151.432 147.378 149.863 147.223 148.565 146.959C147.11 146.663 145.44 146.279 142.857 145.789C142.081 145.642 139.487 145.358 135.866 145.079C133.093 144.866 130.58 144.799 129.826 144.674C129.008 144.538 128.35 144.437 127.267 144.367C124.76 144.207 123.81 144.269 122.848 144.131C122.203 144.038 121.607 144.075 120.335 144.033C117.409 143.937 115.282 144.074 114.865 144.157C114.402 144.25 113.917 144.213 112.493 144.255C109.112 144.354 106.618 144.297 106.117 144.366C104.747 144.556 103.192 144.771 102.163 144.91C99.701 145.242 98.4607 145.022 97.3407 145.119C96.2661 145.212 95.1123 145.44 93.9183 145.592C90.373 146.045 89.2364 145.774 87.1622 146.107C85.6143 146.355 84.9702 146.637 84.0375 146.777C82.9935 146.933 81.8258 147.138 80.4722 147.417C79.2678 147.665 78.3119 147.835 77.5451 148.044C76.4559 148.34 75.7476 148.836 74.9678 149.422C74.3352 149.896 73.6864 150.119 73.2242 150.398C72.7744 150.669 73.9873 151.371 74.5306 151.943C75.0665 152.508 75.7142 152.738 76.2859 153.003C76.4307 153.07 76.6052 153.046 76.6215 153.101C76.7745 153.619 75.6924 154.045 75.1479 154.729C74.5408 155.49 74.2147 156.274 73.5464 157.291C72.8465 158.356 72.2371 159.45 71.7071 160.12C71.0086 161.003 70.1776 161.789 68.7428 163.113C68.0005 163.798 67.6115 164.467 67.1376 165.038C66.4853 165.823 65.8847 166.555 65.3961 167.141C64.6992 167.978 64.101 168.813 63.6823 169.356C63.3755 169.956 62.986 170.456 62.8038 171.097C62.762 171.265 62.7068 171.431 62.5664 171.685" stroke="#FF613E" stroke-width="2" stroke-linecap="round"/>
<path d="M77.2764 153.544C79.7037 152.331 81.3402 151.595 83.2355 151.373C84.7384 151.197 87.365 151.151 88.8665 151.08C91.1818 150.971 92.2312 150.676 93.5568 150.591C93.9968 150.563 95.6498 150.452 98.1134 150.438C100.181 150.426 101.893 149.842 103.475 149.616C104.795 149.428 106.573 149.365 108.545 149.282C109.567 149.239 110.623 149.088 111.501 149.017C111.711 149 111.877 148.976 114.045 148.962C116.212 148.947 120.377 148.947 122.619 148.934C125.42 148.916 126.086 148.753 127.462 148.683C129.403 148.583 130.347 148.529 131.033 148.391C131.688 148.39 132.41 148.501 133.342 148.599C133.745 148.613 134.379 148.613 135.033 148.613" stroke="#FF613E" stroke-width="2" stroke-linecap="round"/>
<path d="M162.282 156.303C162.282 156.413 162.254 158.401 162.254 161.492C162.254 163.666 162.698 164.768 163.005 165.854C163.243 166.697 163.562 167.527 163.826 168.636C164.708 172.346 165.206 174.048 165.582 174.897C165.709 175.609 165.764 176.386 165.82 178.348C165.848 178.758 165.903 178.895 166.043 179.288" stroke="#FF613E" stroke-width="2" stroke-linecap="round"/>
<path opacity="0.5" d="M60.4346 168.652C61.5483 169.959 64.3473 172.799 65.2964 173.458C65.6863 173.729 65.9766 173.733 66.192 173.542C67.8681 172.051 67.3011 167.851 67.3203 166.025C67.335 164.625 68.5743 170.805 69.3936 172.277C69.5077 172.482 69.7032 172.644 69.8399 172.608C70.7198 172.38 70.5574 170.638 70.7727 169.356C71.0623 167.631 70.9089 164.602 70.7739 162.508C70.6984 161.337 70.405 160.508 70.4812 160.619C72.8715 164.124 73.8929 168.571 74.6872 169.771C75.4549 170.931 76.1833 171.754 76.4353 171.91C76.7187 172.086 76.6116 169.946 76.5732 167.64C76.5152 164.159 76.0693 160.393 75.9529 159.696C75.8379 159.008 76.1821 161.447 76.6663 165.906C76.9947 168.931 78.5412 171.967 79.6154 173.789C79.9288 174.32 80.295 174.78 80.7012 174.859C80.9385 174.906 81.1458 174.325 81.5333 171.841C81.9209 169.357 82.4586 164.825 82.7548 161.415C83.051 158.006 83.0894 155.855 83.1091 154.958C83.1289 154.061 83.1289 154.484 83.1673 154.893C83.2422 155.692 83.4385 157.043 83.7085 159.362C84.3855 165.175 85.7242 167.79 86.4214 168.917C86.6301 169.254 86.9649 168.738 87.122 168.213C87.2791 167.688 87.3559 167.074 87.4915 165.087C87.8549 159.761 88.0938 155.932 88.2101 155.062C88.4757 153.077 88.3661 151.898 88.4627 151.176C88.6502 149.776 88.792 155.829 89.1581 160.239C89.5662 165.156 90.5762 167.951 90.8084 168.128C91.1766 168.407 91.1976 167.065 91.4287 166.119C91.829 164.481 93.2832 161.457 94.8916 157.758C95.5893 156.154 95.8471 155.019 96.0822 153.889C96.3173 152.758 96.4709 151.644 96.4732 153.605C96.4756 155.566 96.3219 160.636 96.166 163.9C95.8679 170.14 95.4653 171.169 95.4845 171.637C95.5255 172.632 96.1241 169.511 96.7037 167.634C97.2667 165.81 97.637 164.196 98.1567 162.114C98.5546 160.52 99.406 157.882 99.8599 156.613C100.264 155.482 100.393 160.074 100.392 166.496C100.391 168.579 100.698 168.27 101.085 167.574C101.473 166.878 102.011 165.803 102.979 164.097C103.947 162.391 105.33 160.086 106.311 158.323C108.688 154.051 108.615 153.021 108.809 152.729C109.293 152 108.734 154.991 108.463 158.129C108.24 160.725 108.116 165.377 107.979 168.021C107.815 171.167 107.685 172.715 107.973 173.23C108.264 173.75 108.838 170.596 110.114 166.953C111.39 163.311 113.349 158.203 114.434 155.438C115.849 151.833 116.142 151.119 116.239 151.116C117.004 151.093 116.104 152.821 115.738 155.303C115.424 157.436 114.95 161.357 114.616 163.721C114.183 166.784 113.97 168.064 114.008 168.803C114.017 168.969 114.124 168.696 115.699 165.428C117.275 162.159 120.348 155.899 120.721 156.246C121.094 156.593 118.674 163.736 117.389 167.531C116.104 171.327 116.028 171.557 117.063 169.659C118.099 167.762 120.25 163.729 121.473 161.345C123.489 157.414 124.323 155.513 125.024 154.166C125.147 153.93 125.333 153.797 125.413 153.929C125.492 154.061 125.492 154.484 124.973 157.62C124.455 160.757 123.418 166.594 122.845 169.717C122.229 173.076 122.117 173.538 122.136 173.637C122.161 173.767 122.193 173.007 122.597 171.29C123.001 169.574 123.769 166.655 124.856 163.75C125.943 160.844 127.326 158.04 128.134 156.443C129.486 153.875 129.836 152.943 129.894 152.479C129.914 152.245 129.914 152.014 129.914 151.777" stroke="#FF613E" stroke-width="2" stroke-linecap="round"/>
<path opacity="0.2" d="M134.845 153.398C137.837 152.719 140.828 152.039 141.915 151.87C142.177 151.829 137.945 153.253 132.481 154.738C127.242 156.162 126.379 157.608 126.149 158.042C125.939 158.438 128.645 158.617 133.706 158.254C136.742 158.037 140.671 157.167 143.427 156.544C149.564 155.157 150.544 154.681 151.138 154.498C152.233 154.162 144.027 157.738 140.467 159.32C139.354 159.814 137.672 160.435 136.536 160.898C135.4 161.361 134.856 161.633 138.383 161.32C141.91 161.007 149.523 160.1 153.763 159.633C158.002 159.166 158.636 159.166 158.805 159.189C158.973 159.212 158.656 159.257 153.19 160.617C147.724 161.977 137.12 164.651 131.951 166.097C126.783 167.542 127.372 167.678 129.964 167.476C132.556 167.274 137.133 166.73 140.375 166.45C143.617 166.17 145.384 166.17 146 166.329C146.462 166.448 142.791 167.992 138.605 169.433C135.629 170.457 134.664 171.433 134.593 171.798C134.473 172.42 135.94 172.35 137.124 172.259C139.048 172.112 142.648 171.166 147.603 170.069C152.536 168.976 155.533 169.054 155.652 169.167C158.928 172.293 146.477 173.399 145.969 174.042C145.89 174.142 146.42 174.135 149.303 173.501C152.186 172.866 157.579 171.597 160.606 170.921C164.119 170.136 164.918 170.062 165.217 170.061C166.23 170.056 163.965 172.476 163.389 174.038C163.138 174.814 162.907 175.46 162.702 175.917C162.587 176.147 162.451 176.374 161.762 177.019" stroke="#FF613E" stroke-width="2" stroke-linecap="round"/>
<path opacity="0.2" d="M164.921 158.616C165.102 158.616 167.28 157.664 169.94 157.151C174.739 156.226 167.486 163.005 166.983 163.991C166.852 164.247 166.709 164.515 166.888 164.519C168.728 164.562 170.041 162.42 172.213 160.592C172.826 160.076 173.468 159.632 173.365 160.259C172.452 165.782 170.141 167.903 170.071 168.568C169.916 170.04 172.743 165.397 174.551 162.858C174.629 162.748 172.812 166.276 170.112 171.012C168.901 173.136 168.721 173.947 168.697 174.61C168.687 174.91 168.81 175.136 169.061 175.162C169.734 175.232 170.593 174.322 172.48 172.434C176.227 168.686 179.154 166.217 179.658 166.032C180.603 165.686 178.934 168.767 175.6 176.211C174.91 177.751 174.721 178.064 174.582 178.364C174.22 179.144 177.047 173.683 177.827 172.741C178.004 172.527 178.192 172.307 178.308 172.327C179.322 172.494 177.742 174.996 177.351 176.44C176.819 178.399 176.322 179.759 176.068 181.246C176.002 181.633 176.045 182 176.339 181.87C179.247 180.582 180.388 176.843 181.212 175.743C181.453 175.419 181.672 175.911 181.742 176.348C182.015 178.045 181.538 179.528 181.424 181.017C181.4 182.132 181.355 183.148 181.286 184.105C181.263 184.7 181.263 185.516 181.263 186.356" stroke="#FF613E" stroke-width="2" stroke-linecap="round"/>
</g>
<defs>
<linearGradient id="paint0_linear_306_598" x1="252" y1="238" x2="252" y2="303.5" gradientUnits="userSpaceOnUse">
<stop stop-color="#D9D9D9"/>
<stop offset="1" stop-color="#737373" stop-opacity="0"/>
</linearGradient>
</defs>
</svg>
