<svg width="19" height="23" viewBox="0 0 19 23" fill="none" xmlns="http://www.w3.org/2000/svg">
<path d="M13.2611 22.5439H6.18109C4.32242 22.5439 3.39308 22.5439 2.68316 22.1761C2.0587 21.8525 1.551 21.3362 1.23282 20.7012C0.871094 19.9792 0.871094 19.0341 0.871094 17.1439V5.44395C0.871094 3.55377 0.871094 2.60868 1.23282 1.88673C1.551 1.25168 2.0587 0.735371 2.68316 0.411798C3.39308 0.0439453 4.32242 0.0439453 6.18109 0.0439453H13.2611C15.1198 0.0439453 16.0491 0.0439453 16.759 0.411798C17.3835 0.735371 17.8912 1.25168 18.2094 1.88673C18.5711 2.60868 18.5711 3.55377 18.5711 5.44395V17.1439C18.5711 19.0341 18.5711 19.9792 18.2094 20.7012C17.8912 21.3362 17.3835 21.8525 16.759 22.1761C16.0491 22.5439 15.1198 22.5439 13.2611 22.5439Z" fill="#4F4F4F"/>
<path d="M11.8359 5.05469C12.4328 4.92126 13.0401 4.94861 13.6387 5.03125L13.7158 5.04688C13.7903 5.06709 13.8553 5.10253 13.9033 5.16113C13.951 5.21933 13.9749 5.29143 13.9824 5.37207L13.9854 5.45508C13.9635 6.1493 13.7402 6.7709 13.4023 7.34766L13.251 7.59277C13.2313 7.6224 13.2115 7.651 13.1924 7.67969C13.5824 7.76079 13.9541 7.90672 14.2734 8.16992L14.4102 8.28711C15.0317 8.84059 15.4349 9.52892 15.5625 10.3525L15.5859 10.5312L15.6123 10.876C15.6983 12.4713 15.231 13.9264 14.418 15.2734L14.2383 15.5605C13.8559 16.1514 13.3328 16.6136 12.6611 16.8799L12.6602 16.8789C11.8512 17.2019 11.0698 17.1052 10.3281 16.6885H10.3271C10.2347 16.6365 10.1558 16.6152 10.0811 16.6152C10.0435 16.6153 10.0048 16.6202 9.96387 16.6318L9.83301 16.6865C9.2848 16.9752 8.70227 17.1164 8.08984 17.0557L7.8252 17.0176C7.40634 16.9379 7.04338 16.7434 6.72168 16.4893L6.58691 16.377C5.79626 15.6877 5.30486 14.813 4.96875 13.8633L4.83398 13.4521C4.60474 12.6946 4.42584 11.9144 4.44043 11.1016L4.45312 10.8311C4.55603 9.50139 5.23896 8.51008 6.43555 7.89062L6.58984 7.81738C7.36724 7.47915 8.18742 7.5804 8.96191 7.93359H8.96094C9.04678 7.97212 9.1322 8.01781 9.21875 8.06543C9.07372 7.59948 8.85982 7.18582 8.55176 6.82715L8.39258 6.65527C8.28474 6.548 8.17109 6.44776 8.05469 6.3457L7.95605 6.24707C7.92452 6.2099 7.89566 6.16759 7.87402 6.11816V6.11914C7.83483 6.03173 7.81282 5.9377 7.82227 5.84473C7.83195 5.7502 7.87368 5.66223 7.9502 5.58789L8.01074 5.53906C8.07385 5.49719 8.14364 5.47776 8.21484 5.47852C8.30723 5.47951 8.39597 5.51462 8.47266 5.56543L8.62598 5.67285C8.97592 5.933 9.26901 6.25329 9.48438 6.64355L9.7002 7.05078C9.71711 7.08488 9.73268 7.11971 9.74902 7.1543C9.76991 7.00192 9.7995 6.8504 9.84375 6.70117C10.1002 5.80851 10.7753 5.3693 11.5811 5.12207L11.8359 5.05469ZM9.30566 8.99219C8.70534 8.64924 8.118 8.34947 7.41797 8.46387L7.41895 8.46484C7.00742 8.53248 6.63926 8.66684 6.32617 8.91406L6.19531 9.02734C5.54785 9.63524 5.26006 10.3894 5.30176 11.2783V11.2861C5.27799 11.9866 5.42159 12.6636 5.63965 13.332H5.63867C5.9397 14.2499 6.34663 15.0955 7.08594 15.7295L7.23535 15.8506C7.58842 16.1199 7.97247 16.2941 8.42773 16.2842L8.56641 16.2744C8.88463 16.2397 9.18023 16.1136 9.48828 15.9775L9.61328 15.9287C9.90527 15.8283 10.1985 15.8315 10.4961 15.9385H10.4951C10.6421 15.9901 10.7849 16.0483 10.9258 16.1074L11.1133 16.1768C11.5488 16.3193 11.9776 16.315 12.4092 16.1094H12.4102L12.6504 15.9814C13.1901 15.661 13.5825 15.19 13.8945 14.6328L14.0684 14.3008C14.4477 13.5179 14.6596 12.6777 14.7764 11.8076L14.8037 11.5439C14.8431 11.0188 14.7866 10.5107 14.5889 10.0244L14.4775 9.7832C13.987 8.82374 12.9578 8.31951 11.8887 8.50391H11.8877C11.4138 8.58436 10.9974 8.80659 10.5596 9.02637H10.5586C10.3458 9.1323 10.139 9.18688 9.92969 9.18164C9.72017 9.17636 9.51486 9.11133 9.30566 8.99121V8.99219ZM12.6084 5.8877C12.5125 5.88821 12.4179 5.89091 12.3242 5.89648L12.0439 5.92578C11.6965 5.98072 11.3921 6.08099 11.1455 6.25C10.9311 6.39695 10.7573 6.59815 10.6367 6.875L10.5879 6.99805C10.4552 7.37303 10.4617 7.76109 10.4717 8.18848C10.9049 7.97595 11.3291 7.77834 11.7725 7.62988H11.7734L11.9531 7.56836C12.0072 7.54628 12.0561 7.52016 12.1006 7.48242V7.48145L12.2891 7.30859C12.6732 6.91627 12.8995 6.42647 13.0703 5.88574C12.9137 5.88738 12.7574 5.8869 12.6084 5.8877Z" fill="#1F1F1F" stroke="#1F1F1F" stroke-width="0.183333"/>
</svg>
