<svg width="19" height="23" viewBox="0 0 19 23" fill="none" xmlns="http://www.w3.org/2000/svg">
<path d="M12.9623 22.5439H5.88227C4.02359 22.5439 3.09425 22.5439 2.38433 22.1761C1.75987 21.8525 1.25217 21.3362 0.933988 20.7012C0.572266 19.9792 0.572266 19.0341 0.572266 17.1439V5.44395C0.572266 3.55377 0.572266 2.60868 0.933988 1.88673C1.25217 1.25168 1.75987 0.735371 2.38433 0.411798C3.09425 0.0439453 4.02359 0.0439453 5.88227 0.0439453H12.9623C14.8209 0.0439453 15.7503 0.0439453 16.4602 0.411798C17.0847 0.735371 17.5924 1.25168 17.9105 1.88673C18.2723 2.60868 18.2723 3.55377 18.2723 5.44395V17.1439C18.2723 19.0341 18.2723 19.9792 17.9105 20.7012C17.5924 21.3362 17.0847 21.8525 16.4602 22.1761C15.7503 22.5439 14.8209 22.5439 12.9623 22.5439Z" fill="#4F4F4F"/>
<path d="M4.85289 8.04414C4.77528 8.04357 4.69889 8.06348 4.63144 8.10187C4.58108 8.13072 4.53691 8.16923 4.50146 8.21518C4.46601 8.26113 4.43997 8.31363 4.42484 8.36966C4.40972 8.42569 4.40579 8.48416 4.4133 8.54171C4.4208 8.59926 4.43959 8.65476 4.46858 8.70504L5.52413 10.5464C4.61669 11.5371 4.06253 12.861 4.06187 14.3163H2.51517C2.45694 14.316 2.39925 14.3273 2.34541 14.3495C2.29157 14.3717 2.24265 14.4043 2.20148 14.4455C2.16031 14.4866 2.12769 14.5356 2.10552 14.5894C2.08334 14.6432 2.07204 14.7009 2.07227 14.7592C2.07249 14.8171 2.08413 14.8744 2.10651 14.9279C2.12889 14.9813 2.16157 15.0298 2.2027 15.0706C2.24383 15.1114 2.29259 15.1437 2.3462 15.1657C2.39982 15.1876 2.45723 15.1988 2.51517 15.1986H16.6328C16.7492 15.1982 16.8607 15.1517 16.9431 15.0694C17.0254 14.9871 17.0718 14.8756 17.0723 14.7592C17.0727 14.6421 17.0267 14.5298 16.9443 14.4467C16.8619 14.3636 16.7498 14.3167 16.6328 14.3163H15.0827C15.082 12.8624 14.5288 11.5393 13.623 10.549L14.6785 8.70504C14.7075 8.65476 14.7263 8.59926 14.7338 8.54171C14.7413 8.48416 14.7374 8.42569 14.7223 8.36966C14.7071 8.31363 14.6811 8.26113 14.6457 8.21518C14.6102 8.16923 14.566 8.13072 14.5157 8.10187C14.4653 8.07316 14.4098 8.05465 14.3523 8.0474C14.2948 8.04016 14.2364 8.04432 14.1805 8.05965C14.1244 8.07509 14.072 8.10146 14.0261 8.13724C13.9803 8.17303 13.942 8.21753 13.9134 8.26817L12.9595 9.93293C12.0256 9.19795 10.8504 8.76019 9.57226 8.76019C8.29478 8.76019 7.12043 9.1978 6.18675 9.93207L5.23374 8.26818C5.20526 8.21761 5.16708 8.17317 5.12139 8.13739C5.0757 8.10161 5.0234 8.07519 4.96749 8.05965C4.93013 8.04948 4.8916 8.04426 4.85289 8.04414ZM9.57227 9.64254C10.8122 9.64254 11.9324 10.1262 12.7605 10.9187C12.7677 10.9261 12.7751 10.9333 12.7829 10.9402C13.657 11.7882 14.1996 12.9829 14.2003 14.3163H4.94423C4.94492 12.9965 5.47556 11.8124 6.33411 10.9661C6.36217 10.945 6.38763 10.9207 6.40994 10.8937C7.23529 10.1162 8.34561 9.64254 9.57227 9.64254ZM7.47237 12.2612C7.1517 12.2781 6.88557 12.5571 6.88557 12.8842C6.88557 13.2217 7.16822 13.508 7.50253 13.508C7.83684 13.508 8.11604 13.2217 8.11604 12.8842C8.11604 12.5466 7.83684 12.2612 7.50253 12.2612C7.49736 12.2612 7.49302 12.261 7.48786 12.2612C7.48269 12.2613 7.47754 12.2609 7.47237 12.2612ZM11.6162 12.2612C11.2955 12.2781 11.0285 12.5571 11.0285 12.8842C11.0285 13.2217 11.312 13.508 11.6463 13.508C11.9806 13.508 12.2598 13.2217 12.2598 12.8842C12.2598 12.5466 11.9806 12.2612 11.6463 12.2612C11.6411 12.2612 11.636 12.261 11.6308 12.2612C11.6256 12.2613 11.6213 12.2609 11.6162 12.2612Z" fill="#1E1E1E"/>
</svg>
