<svg width="19" height="23" viewBox="0 0 19 23" fill="none" xmlns="http://www.w3.org/2000/svg">
<path d="M13.4912 0C14.5113 1.64374e-07 15.2314 0.000925374 15.7939 0.046875C16.3477 0.092116 16.6827 0.177293 16.9443 0.310547L17.1406 0.420898C17.587 0.694684 17.9513 1.08652 18.1904 1.55566L18.2812 1.76855C18.3636 1.99908 18.4202 2.29166 18.4541 2.70703C18.5 3.26961 18.501 3.98967 18.501 5.00977V17.4902C18.501 18.5103 18.5 19.2304 18.4541 19.793C18.4202 20.2083 18.3636 20.5009 18.2812 20.7314L18.1904 20.9443C17.9513 21.4135 17.587 21.8053 17.1406 22.0791L16.9443 22.1895C16.6827 22.3227 16.3477 22.4079 15.7939 22.4531C15.2314 22.4991 14.5113 22.5 13.4912 22.5H5.81055C4.79044 22.5 4.07039 22.4991 3.50781 22.4531C3.09241 22.4192 2.79987 22.3627 2.56934 22.2803L2.35645 22.1895C1.88753 21.9505 1.49543 21.5867 1.22168 21.1406L1.11133 20.9443C0.97799 20.6826 0.892914 20.3469 0.847656 19.793C0.801719 19.2304 0.800781 18.5103 0.800781 17.4902V5.00977C0.800781 3.98966 0.801719 3.26961 0.847656 2.70703C0.892914 2.1531 0.97799 1.81735 1.11133 1.55566L1.22168 1.35938C1.49543 0.913257 1.88753 0.549548 2.35645 0.310547L2.56934 0.219727C2.79987 0.137325 3.09241 0.080815 3.50781 0.046875C4.07039 0.00093807 4.79044 8.96334e-08 5.81055 0H13.4912ZM6.44043 9.2168C5.85677 9.2168 5.39355 9.41602 5.0498 9.81348C4.70966 10.2109 4.53906 10.7481 4.53906 11.4248V12.1279C4.53906 12.8298 4.70964 13.3776 5.0498 13.7715C5.39354 14.1616 5.8748 14.3574 6.49414 14.3574C7.01335 14.3574 7.42025 14.2406 7.71387 14.0078C8.00725 13.7751 8.21161 13.4297 8.32617 12.9717L7.42383 12.875C7.33074 13.104 7.19948 13.2689 7.03125 13.3691C6.86673 13.4657 6.68592 13.5136 6.48926 13.5137C6.14909 13.5137 5.89258 13.3955 5.7207 13.1592C5.55241 12.9193 5.46875 12.5863 5.46875 12.1602V11.9561H8.24023V11.4033C8.24739 10.7126 8.09672 10.1751 7.78906 9.79199C7.48112 9.40885 7.03125 9.2168 6.44043 9.2168ZM14.7334 9.2168C14.1497 9.2168 13.6865 9.41602 13.3428 9.81348C13.0026 10.2109 12.832 10.7481 12.832 11.4248V12.1279C12.832 12.8298 13.0026 13.3776 13.3428 13.7715C13.6865 14.1616 14.1678 14.3574 14.7871 14.3574C15.3063 14.3574 15.7132 14.2406 16.0068 14.0078C16.3002 13.7751 16.5046 13.4297 16.6191 12.9717L15.7168 12.875C15.6237 13.104 15.4925 13.2689 15.3242 13.3691C15.1597 13.4657 14.9789 13.5136 14.7822 13.5137C14.4421 13.5137 14.1855 13.3955 14.0137 13.1592C13.8454 12.9193 13.7617 12.5863 13.7617 12.1602V11.9561H16.5332V11.4033C16.5404 10.7126 16.3897 10.1751 16.082 9.79199C15.7741 9.40885 15.3242 9.2168 14.7334 9.2168ZM2.99805 13.041C2.79036 13.041 2.62923 13.1042 2.51465 13.2295C2.40366 13.3512 2.34766 13.5016 2.34766 13.6807C2.34776 13.8631 2.40374 14.0174 2.51465 14.1426C2.6292 14.2676 2.79065 14.3301 2.99805 14.3301C3.20549 14.33 3.36467 14.2691 3.47559 14.1475C3.59007 14.0258 3.64736 13.8702 3.64746 13.6807C3.64746 13.5018 3.59001 13.3512 3.47559 13.2295C3.36467 13.1043 3.20549 13.0411 2.99805 13.041ZM8.66992 9.34082L9.99316 11.6357L8.49219 14.25H9.54004L10.54 12.4102L11.6025 14.25H12.5742L11.1719 11.8291L12.585 9.34082H11.543L10.6006 11.0127L9.60938 9.34082H8.66992ZM6.39746 10.0547C6.76628 10.0547 7.01335 10.1585 7.13867 10.3662C7.26758 10.5739 7.33203 10.8411 7.33203 11.167V11.3223H5.46875V11.2852C5.46875 10.9308 5.54898 10.637 5.70996 10.4043C5.87109 10.1715 6.10026 10.0547 6.39746 10.0547ZM14.6904 10.0547C15.0592 10.0547 15.3063 10.1585 15.4316 10.3662C15.5605 10.5739 15.625 10.8411 15.625 11.167V11.3223H13.7617V11.2852C13.7617 10.9308 13.8419 10.637 14.0029 10.4043C14.1641 10.1715 14.3932 10.0547 14.6904 10.0547Z" fill="#4F4F4F"/>
</svg>
