<svg width="18" height="23" viewBox="0 0 18 23" fill="none" xmlns="http://www.w3.org/2000/svg">
<path d="M12.792 0C13.8121 1.64462e-07 14.5322 0.000925348 15.0947 0.046875C15.6485 0.092116 15.9835 0.177293 16.2451 0.310547L16.4414 0.420898C16.8878 0.694684 17.2521 1.08652 17.4912 1.55566L17.582 1.76855C17.6644 1.99908 17.7209 2.29166 17.7549 2.70703C17.8008 3.26961 17.8018 3.98967 17.8018 5.00977V17.4902C17.8018 18.5103 17.8008 19.2304 17.7549 19.793C17.7209 20.2083 17.6644 20.5009 17.582 20.7314L17.4912 20.9443C17.2521 21.4135 16.8878 21.8053 16.4414 22.0791L16.2451 22.1895C15.9835 22.3227 15.6485 22.4079 15.0947 22.4531C14.5322 22.4991 13.8121 22.5 12.792 22.5H5.11133C4.09122 22.5 3.37117 22.4991 2.80859 22.4531C2.39319 22.4192 2.10065 22.3627 1.87012 22.2803L1.65723 22.1895C1.18831 21.9505 0.796216 21.5867 0.522461 21.1406L0.412109 20.9443C0.278772 20.6826 0.193695 20.3469 0.148438 19.793C0.102501 19.2304 0.101563 18.5103 0.101562 17.4902V5.00977C0.101563 3.98966 0.102501 3.26961 0.148438 2.70703C0.193695 2.1531 0.278772 1.81735 0.412109 1.55566L0.522461 1.35938C0.796216 0.913257 1.18831 0.549548 1.65723 0.310547L1.87012 0.219727C2.10065 0.137325 2.39319 0.080815 2.80859 0.046875C3.37117 0.000938059 4.09122 8.97211e-08 5.11133 0H12.792ZM6.97461 6.7334L6.79785 6.75195C6.19487 6.84574 5.64864 7.15255 5.25488 7.61133L5.0957 7.81738C4.82323 8.20967 4.72664 8.67319 4.68262 9.1543C4.63856 9.63604 4.63965 10.2494 4.63965 10.998V11.1299C4.63965 11.9776 4.63858 12.6655 4.6875 13.1992C4.73581 13.7262 4.84116 14.2364 5.15039 14.6484L5.32812 14.8604C5.76655 15.3287 6.36886 15.6168 7.01562 15.6611L7.20703 15.6641C7.65039 15.6479 8.07268 15.4761 8.48242 15.2607C8.95687 15.0113 9.53382 14.6362 10.2451 14.1748L10.3604 14.1006L11.293 13.4883C11.5701 13.3017 11.8128 13.1309 12.0176 12.9697C12.4232 12.6504 12.7844 12.2936 12.9629 11.8213L13.0449 11.5625C13.1814 11.0384 13.1478 10.484 12.9482 9.98047L12.834 9.7334C12.599 9.28668 12.1974 8.97722 11.7559 8.70996C11.5329 8.57501 11.2715 8.4345 10.9736 8.2832L9.97363 7.79004L9.85742 7.73438C9.18417 7.40685 8.63317 7.13794 8.18066 6.9668C7.78534 6.81728 7.38469 6.709 6.97461 6.7334ZM7.1084 8.23047C7.20759 8.23341 7.36973 8.26299 7.65039 8.36914C8.02352 8.51028 8.50181 8.74278 9.20117 9.08301L9.31738 9.13965L10.2949 9.62109C10.5682 9.75978 10.7931 9.88034 10.9795 9.99316C11.3565 10.2214 11.467 10.3559 11.5068 10.4316L11.5537 10.5332C11.6358 10.7405 11.6499 10.9688 11.5938 11.1846L11.5596 11.291C11.5293 11.3711 11.4362 11.5183 11.0898 11.791C10.9186 11.9258 10.7103 12.073 10.4561 12.2441L9.54395 12.8418L9.42871 12.917C8.69253 13.3945 8.18323 13.7238 7.78418 13.9336C7.48084 14.093 7.30566 14.1466 7.20117 14.1611L7.11816 14.165C6.85174 14.1468 6.6034 14.0279 6.42285 13.835L6.34961 13.748C6.29845 13.6799 6.22343 13.5182 6.18164 13.0625C6.14048 12.6135 6.13965 12.0074 6.13965 11.1299V10.998C6.13965 10.2203 6.14042 9.6883 6.17676 9.29102C6.21316 8.89318 6.27805 8.74354 6.32715 8.67285L6.39258 8.58789C6.55471 8.39897 6.78002 8.27299 7.02832 8.23438L7.1084 8.23047Z" fill="#4F4F4F"/>
</svg>
