<svg width="19" height="23" viewBox="0 0 19 23" fill="none" xmlns="http://www.w3.org/2000/svg">
<path d="M8.05273 0C7.9578 0.125642 7.89941 0.280582 7.89941 0.450195V1.65039C7.89963 2.06442 8.23533 2.40039 8.64941 2.40039C9.06341 2.40029 9.3992 2.06436 9.39941 1.65039V0.450195C9.39941 0.280666 9.34094 0.12561 9.24609 0H13.3896C14.4098 1.64462e-07 15.1298 0.000925348 15.6924 0.046875C16.2461 0.092116 16.5811 0.177293 16.8428 0.310547L17.0391 0.420898C17.4855 0.694684 17.8498 1.08652 18.0889 1.55566L18.1797 1.76855C18.2621 1.99908 18.3186 2.29166 18.3525 2.70703C18.3985 3.26961 18.3994 3.98967 18.3994 5.00977V17.4902C18.3994 18.5103 18.3985 19.2304 18.3525 19.793C18.3186 20.2083 18.2621 20.5009 18.1797 20.7314L18.0889 20.9443C17.8498 21.4135 17.4855 21.8053 17.0391 22.0791L16.8428 22.1895C16.5811 22.3227 16.2461 22.4079 15.6924 22.4531C15.1298 22.4991 14.4098 22.5 13.3896 22.5H5.70898C4.68888 22.5 3.96883 22.4991 3.40625 22.4531C2.99084 22.4192 2.69831 22.3627 2.46777 22.2803L2.25488 22.1895C1.78597 21.9505 1.39387 21.5867 1.12012 21.1406L1.00977 20.9443C0.876428 20.6826 0.791351 20.3469 0.746094 19.793C0.700157 19.2304 0.699219 18.5103 0.699219 17.4902V5.00977C0.699219 3.98966 0.700157 3.26961 0.746094 2.70703C0.791351 2.1531 0.876428 1.81735 1.00977 1.55566L1.12012 1.35938C1.39387 0.913257 1.78597 0.549548 2.25488 0.310547L2.46777 0.219727C2.69831 0.137325 2.99084 0.080815 3.40625 0.046875C3.96883 0.000938059 4.68888 8.97211e-08 5.70898 0H8.05273ZM10.4492 6.90039C10.035 6.90039 9.69922 7.23618 9.69922 7.65039V8.84961C9.69922 9.01912 9.7577 9.1742 9.85254 9.2998H9.06934C8.74568 9.2998 8.45745 9.29894 8.21973 9.31836C8.03489 9.33347 7.84355 9.36286 7.65332 9.43066L7.46387 9.5127C7.14278 9.67632 6.87387 9.92494 6.68652 10.2305L6.61133 10.3643C6.48308 10.616 6.43811 10.8746 6.41797 11.1211C6.39858 11.3587 6.39941 11.6463 6.39941 11.9697V14.0664L6.40137 14.2949C6.40361 14.3701 6.40826 14.4449 6.41895 14.5195L6.45312 14.6982C6.49548 14.8747 6.5627 15.0446 6.65234 15.2031L6.77539 15.3926C6.81956 15.4535 6.86615 15.5134 6.91309 15.5742L7.29004 16.0586C7.40544 16.2045 7.51125 16.3345 7.61035 16.4473C7.81035 16.6748 8.02306 16.8816 8.28516 17.0312L8.43457 17.1104C9.18826 17.4768 10.0783 17.4501 10.8125 17.0312L11.001 16.9092C11.1807 16.7773 11.3382 16.618 11.4883 16.4473C11.6865 16.2217 11.9128 15.928 12.1855 15.5742L12.3232 15.3926C12.3675 15.3315 12.409 15.269 12.4463 15.2031L12.5283 15.041C12.6026 14.8753 12.6539 14.6999 12.6797 14.5195L12.6973 14.2949L12.6992 14.0664V11.9697C12.6992 11.6463 12.7001 11.3587 12.6807 11.1211C12.6656 10.9363 12.6361 10.7448 12.5684 10.5547L12.4863 10.3643C12.3227 10.0434 12.0739 9.77515 11.7686 9.58789L11.6348 9.5127C11.4298 9.40825 11.2203 9.35961 11.0166 9.33398C11.1285 9.20298 11.1992 9.03537 11.1992 8.84961V7.65039C11.1992 7.23618 10.8634 6.90039 10.4492 6.90039ZM10.0293 10.7998C10.3773 10.7998 10.5934 10.8002 10.7559 10.8135C10.9055 10.8257 10.9465 10.8453 10.9531 10.8486L11.0137 10.8857C11.0709 10.9273 11.118 10.9823 11.1504 11.0459L11.1641 11.0889C11.171 11.1184 11.1793 11.1666 11.1855 11.2432C11.1922 11.3244 11.1955 11.4192 11.1973 11.5371L11.1992 11.9697V14.0664L11.1943 14.3066C11.1903 14.3345 11.1839 14.3621 11.1748 14.3887L11.1406 14.4648L10.9971 14.6582C10.7123 15.0275 10.5203 15.2762 10.3613 15.457C10.2828 15.5464 10.2227 15.6075 10.1758 15.6494L10.0693 15.7285C9.78725 15.8894 9.44943 15.9097 9.15332 15.7891L9.0293 15.7285C8.97841 15.6995 8.89448 15.6358 8.7373 15.457C8.65793 15.3667 8.57015 15.2596 8.4668 15.1289L8.10059 14.6582L7.95801 14.4648C7.94424 14.4405 7.93185 14.415 7.92285 14.3887L7.90332 14.3066L7.89941 14.0664V11.9697C7.89941 11.6217 7.89983 11.4056 7.91309 11.2432C7.92552 11.091 7.94537 11.0515 7.94824 11.0459L7.98535 10.9854C8.02685 10.9283 8.08109 10.881 8.14453 10.8486L8.1875 10.835C8.21691 10.8281 8.26495 10.8198 8.3418 10.8135C8.50427 10.8002 8.72093 10.7998 9.06934 10.7998H10.0293ZM8.64941 4.5C8.2352 4.5 7.89941 4.83579 7.89941 5.25V6.4502C7.89952 6.86432 8.23527 7.2002 8.64941 7.2002C9.06347 7.20009 9.39931 6.86425 9.39941 6.4502V5.25C9.39941 4.83585 9.06354 4.50011 8.64941 4.5ZM10.4492 2.09961C10.0351 2.09961 9.69943 2.43558 9.69922 2.84961V4.0498C9.69922 4.46402 10.035 4.7998 10.4492 4.7998C10.8634 4.7998 11.1992 4.46402 11.1992 4.0498V2.84961C11.199 2.43558 10.8633 2.09961 10.4492 2.09961Z" fill="#4F4F4F"/>
</svg>
