<svg width="16" height="15" viewBox="0 0 16 15" fill="none" xmlns="http://www.w3.org/2000/svg">
<path d="M7.84997 1.14453C7.82955 1.18537 7.80913 1.22621 7.2575 1.96193C6.70586 2.69765 5.62363 4.12702 5.02527 4.87357C4.42692 5.62012 4.34524 5.64054 3.79268 5.64085C2.21901 5.64173 1.10597 5.62012 1.01315 5.68168C0.923851 5.74092 1.28789 6.2556 2.15015 7.2215C2.67448 7.80886 3.80469 8.07031 4.30469 9.07031C4.80469 10.0703 3.84642 13.4427 4.50974 13.9158C5.17307 14.3888 6.95646 12.6054 7.7222 12.3196C8.48793 12.0337 8.63087 12.1562 8.85765 12.3827C9.09035 12.6151 12.8777 14.6183 13.0128 13.2072C13.1284 12.0004 11.7508 9.30087 11.8047 9.07031C12.1446 7.61549 16.1051 6.2308 14.3028 5.21235C13.578 4.80272 11.2966 5.0503 10.3047 4.49805C9.31279 3.94579 8.80961 1.41953 8.30469 1" stroke="#6D6D72" stroke-width="1.39331" stroke-linecap="round"/>
</svg>
