<svg width="15" height="19" viewBox="0 0 15 19" fill="none" xmlns="http://www.w3.org/2000/svg">
<path d="M0.761022 10.8125C0.690464 12.0452 0.968543 14.8218 1.31303 15.9097C1.44552 16.3282 1.41783 16.6221 1.52107 16.7948C1.62413 16.9673 1.9356 16.9001 3.3758 16.8483C4.67831 16.8013 7.14439 16.8306 8.48291 16.8135C10.2405 16.791 11.2679 16.6231 12.017 16.537C12.3762 16.4957 12.6925 16.4508 12.8653 16.2786C13.2298 15.9151 13.1771 15.38 13.3156 14.9474C13.3846 14.689 13.4199 13.4179 13.4027 11.6545C13.3856 11.021 13.3514 10.9183 13.3161 10.605M3.66712 8.63396C6.29538 11.1232 6.43338 11.5372 6.64039 11.8158C7.04865 12.3653 7.40044 10.9873 7.79888 10.4176C8.16753 9.89054 8.50653 9.36236 8.85413 8.9468C8.99213 8.73979 9.16541 8.59972 9.35529 8.49647C9.44245 8.42747 9.51093 8.32475 9.68525 8.11515M6.67536 11.4342C6.67536 8.8163 6.60688 6.45574 6.46836 6.04017C6.32984 5.62461 6.19184 5.14212 6.05331 4.69128C5.94903 4.20724 5.88055 3.65419 5.75915 3.10167C5.74151 2.86042 5.74151 2.48377 5.74151 2.0957" stroke="#6D6D72" stroke-width="1.5" stroke-linecap="round"/>
</svg>
