<svg width="25" height="24" viewBox="0 0 25 24" fill="none" xmlns="http://www.w3.org/2000/svg">
<path d="M3.08984 11.9858C5.88289 11.5751 8.67594 11.1643 11.1006 10.9527C13.5252 10.7411 15.4968 10.7411 16.6356 10.7C18.4612 10.6342 19.0192 10.2433 19.7231 10.1399C21.2458 9.91645 22.0039 9.74787 22.7321 9.55931C22.9598 9.49769 23.2884 9.37447 23.5398 9.31099C23.7913 9.24751 23.9556 9.24751 24.0004 9.12305" stroke="#6D6D72" stroke-width="2" stroke-linecap="round"/>
<path d="M10.1846 2.52734C10.1846 2.60949 10.1846 2.69164 10.5337 4.9109C10.8828 7.13015 11.5811 11.484 11.9819 13.8091C12.471 16.6466 12.7137 17.3763 12.8189 18.0628C12.9127 18.6746 13.1295 19.328 13.1923 19.9298C13.2539 20.1992 13.3373 20.4494 13.4201 20.7183C13.4618 20.8639 13.5029 21.0282 13.5452 21.1975" stroke="#6D6D72" stroke-width="2" stroke-linecap="round"/>
<path d="M8.6875 7.13359C8.70287 7.13359 8.71824 7.13359 9.4179 7.10285C10.1175 7.0721 11.501 7.01062 12.9264 6.94727" stroke="#6D6D72" stroke-width="2" stroke-linecap="round"/>
<path d="M9.38672 1.91602H10.4115" stroke="#6D6D72" stroke-width="2" stroke-linecap="round"/>
<path d="M10.458 16.0295L13.8119 15.75" stroke="#6D6D72" stroke-width="2" stroke-linecap="round"/>
<path d="M12.3213 21.9922L15.1162 22.0854" stroke="#6D6D72" stroke-width="2" stroke-linecap="round"/>
<path d="M16.3271 9.27539L17.0259 11.4647" stroke="#6D6D72" stroke-width="2" stroke-linecap="round"/>
<path d="M22.6152 8.48438L23.3605 10.3942" stroke="#6D6D72" stroke-width="2" stroke-linecap="round"/>
<path d="M6.87988 10.5C7.21954 11.0169 7.55919 11.5337 7.74893 11.8517C7.93868 12.1696 7.96821 12.273 8.04339 12.469" stroke="#6D6D72" stroke-width="2" stroke-linecap="round"/>
<path d="M1.7334 11.5293L2.89691 13.2746" stroke="#6D6D72" stroke-width="2" stroke-linecap="round"/>
</svg>
