<svg width="40" height="38" viewBox="0 0 40 38" fill="none" xmlns="http://www.w3.org/2000/svg">
<g opacity="0.2">
<path d="M5.21894 14.2322L15.4223 6.68101" stroke="#FF613E"/>
<path d="M5.79821 19.3066L21.1732 7.92769" stroke="#FF613E"/>
<path d="M6.30201 23.7344L24.3639 10.3669" stroke="#FF613E"/>
<path d="M6.87114 28.717L26.0754 14.5011" stroke="#FF613E"/>
<path d="M15.0712 28.056L33.4116 14.469" stroke="#FF613E"/>
<path d="M16.1532 32.8777L34.4936 19.2908" stroke="#FF613E"/>
</g>
<path fill-rule="evenodd" clip-rule="evenodd" d="M21.5346 10.5813C19.0976 6.56367 14.2873 4.86231 10.0762 7.57886C5.86521 10.2954 4.52386 15.6887 6.86876 19.9958C9.21367 24.3028 17.9114 34.837 17.9114 34.837C17.9114 34.837 29.3078 27.3044 32.809 23.8706C36.3102 20.4368 36.6726 14.8621 33.3701 11.0584C30.0677 7.25471 25.0392 7.45119 21.5346 10.5813Z" stroke="#FF613E" stroke-width="1.5" stroke-linecap="round"/>
</svg>
