<svg width="21" height="22" viewBox="0 0 21 22" fill="none" xmlns="http://www.w3.org/2000/svg">
<path d="M16.5 18.668V18.3346C16.5 15.9414 14.6292 14.0013 12.3214 14.0013H8.67857C6.37081 14.0013 4.5 15.9414 4.5 18.3346V18.668M13.875 8.16795C13.875 10.101 12.364 11.668 10.5 11.668C8.63604 11.668 7.125 10.101 7.125 8.16795C7.125 6.23496 8.63604 4.66795 10.5 4.66795C12.364 4.66795 13.875 6.23496 13.875 8.16795ZM20.5 10.668C20.5 16.1908 16.0228 20.668 10.5 20.668C4.97715 20.668 0.5 16.1908 0.5 10.668C0.5 5.14511 4.97715 0.667953 10.5 0.667953C16.0228 0.667953 20.5 5.14511 20.5 10.668Z" stroke="#909090" stroke-linecap="round"/>
</svg>
