<svg width="16" height="19" viewBox="0 0 16 19" fill="none" xmlns="http://www.w3.org/2000/svg">
<path d="M6.34033 12.541C4.88262 12.7368 3.42491 12.9326 2.64677 13.0716C1.86863 13.2105 1.81424 13.2867 1.7699 13.3422C1.69688 13.4337 1.48525 13.9209 1.21065 14.6785C1.08835 15.1096 1.05505 15.2768 1.03857 15.348C1.03297 15.3866 1.03297 15.4301 1 15.5408" stroke="#6D6D72" stroke-width="1.39331" stroke-linecap="round"/>
<path d="M1 15.5418C1.10878 14.6715 1.16483 13.9947 1.25729 13.2678C1.32126 12.7649 1.53469 12.0079 1.65716 11.5395C1.87462 10.7077 1.97774 10.5429 2.15839 10.1373C2.26906 9.88879 2.42771 9.54443 2.60292 9.11127C3.01528 8.09181 4.17597 6.7306 5.24622 6.3722C5.4605 6.28979 5.72389 6.22386 6.05815 6.18529C6.22759 6.17969 6.51043 6.17969 6.80184 6.17969" stroke="#6D6D72" stroke-width="1.39331" stroke-linecap="round"/>
<path d="M6.8013 6.17789C6.77955 5.5687 6.76834 5.11345 6.84449 4.70881C6.97086 4.0373 7.27336 3.62904 7.35561 3.55223C7.49073 3.42605 7.74476 3.33235 7.92706 3.28258C8.10269 3.23462 8.32758 3.24401 8.50378 3.28225C8.90543 3.36941 9.3495 3.62838 9.61866 3.71607C10.0067 3.84249 10.3378 4.17626 10.5367 4.40256C10.7246 4.61629 10.8771 4.81446 11.0586 5.04522C11.3816 5.45602 11.9432 5.93527 12.097 6.08378C12.2447 6.22641 12.3826 6.41887 12.5306 6.57776C12.9432 7.0207 13.4484 7.44111 13.5806 7.57825C13.8052 7.81133 13.8993 8.02328 14.0256 8.1881C14.1606 8.36429 14.2949 8.47358 14.4212 8.64417C14.5465 8.81354 14.6905 8.91333 14.7511 9.04536C14.82 9.19526 14.9212 9.38539 14.9875 9.54527C15.0683 9.74029 14.7248 10.0005 14.587 10.1716C14.4673 10.3201 14.3727 10.4627 13.9455 10.8957C13.6527 11.1924 13.1115 11.6369 12.7963 11.9021C12.4642 12.1816 11.9241 12.6483 11.6753 12.8691C11.4282 13.0886 10.9252 13.5265 10.5985 13.8414C10.4137 14.0197 10.2415 14.2425 10.0108 14.5225C9.76156 14.8249 9.37324 15.122 9.13177 15.3468C8.98546 15.483 8.80228 15.6052 8.6424 15.6771C8.48292 15.7488 8.06848 15.7707 7.75251 15.727C7.48489 15.69 7.31886 15.2993 7.16441 15.0847C7.02063 14.8849 6.99909 14.5635 6.97173 14.1472C6.97701 12.9034 7.00997 12.7165 7.02646 12.6123C7.03206 12.5626 7.03206 12.519 7.03206 12.4742" stroke="#6D6D72" stroke-width="1.39331" stroke-linecap="round"/>
</svg>
