<svg width="24" height="27" viewBox="0 0 24 27" fill="none" xmlns="http://www.w3.org/2000/svg">
<path d="M5.80728 6.8858C5.15941 4.87523 5.30194 3.64859 5.60806 3.03689C5.75128 2.75072 6.02216 2.60336 6.3623 2.42411C8.03412 1.54309 10.3748 2.09802 11.4362 2.45705C12.2018 2.71599 12.5732 3.21236 12.8966 3.82406C13.1381 4.28086 13.2578 4.86659 13.5267 5.85622C13.653 6.66768 13.7977 7.27992 13.8155 7.60331C13.8333 7.74855 13.869 7.85544 13.9057 8.07356" stroke="#6D6D72" stroke-width="2" stroke-linecap="round"/>
<path d="M6.7793 7.96589C7.81265 7.96589 8.84601 7.96589 10.0732 7.96589C11.3004 7.96589 12.6901 7.96589 13.4594 7.94807C14.2288 7.93026 14.3356 7.89462 14.4458 7.85791" stroke="#6D6D72" stroke-width="2" stroke-linecap="round"/>
<path d="M6.67188 11.4209C6.95694 13.9865 7.35322 16.0564 7.73115 17.404C8.15857 18.9281 8.03889 19.4804 8.09342 20.057C8.14898 20.6446 8.36282 21.2081 8.7035 21.7491C9.16877 22.4879 10.3021 22.3613 11.0067 22.4525C11.7791 22.5526 12.9994 22.6852 16.0012 22.6874C16.5737 22.6878 16.6405 22.4736 16.695 22.3467C16.9732 21.6995 17.1458 20.6747 17.2354 19.3465C17.4321 16.4323 16.4288 14.7726 16.1567 14.1225C15.9342 13.5909 15.8155 13.0795 15.6168 12.5568C15.4761 12.1866 15.3469 11.8539 15.1498 11.6741C14.9114 11.4566 14.4841 11.5289 14.0895 11.5111C13.621 11.4899 11.9056 11.4565 9.60296 11.5283C8.257 11.6369 7.75382 11.7794 7.28573 11.8706C7.14158 11.8884 6.96342 11.9241 6.77985 11.9608" stroke="#6D6D72" stroke-width="2" stroke-linecap="round"/>
<path d="M12.9347 21.4631C12.3948 19.8823 12.3235 19.0185 12.2512 18.4419C12.0709 17.8296 12.0352 17.361 11.9812 16.9674C11.9629 16.6807 11.9629 16.2175 11.9629 15.7402" stroke="#6D6D72" stroke-width="2" stroke-linecap="round"/>
<path d="M6.02311 12.7167C4.45525 11.7902 3.32688 11.0992 2.75189 10.7396C2.4976 10.5938 2.31944 10.5226 2.10294 10.4146C1.88644 10.3066 1.63701 10.1641 1.16406 9.80127" stroke="#6D6D72" stroke-width="2" stroke-linecap="round"/>
<path d="M6.34762 16.1724C5.13609 16.3862 4.26255 16.6032 3.79554 16.7652C3.57796 16.8202 3.3998 16.8202 3.21893 16.8559C3.03807 16.8915 2.8599 16.9628 2.56836 17.1442" stroke="#6D6D72" stroke-width="2" stroke-linecap="round"/>
<path d="M7.21063 21.4629C6.28417 22.3181 5.66437 22.9012 5.39497 23.1706C5.26809 23.2974 5.16119 23.4043 5.05268 23.4951C4.94416 23.5858 4.83726 23.657 4.61914 23.8384" stroke="#6D6D72" stroke-width="2" stroke-linecap="round"/>
<path d="M18.0098 23.1909C18.865 23.8679 19.7201 24.545 20.232 24.9294C20.7438 25.3138 20.8863 25.385 21.1411 25.5665" stroke="#6D6D72" stroke-width="2" stroke-linecap="round"/>
<path d="M18.4414 18.0078C19.4748 18.1147 20.5081 18.2216 21.1652 18.2767C21.8222 18.3317 22.0717 18.3317 22.2207 18.3317" stroke="#6D6D72" stroke-width="2" stroke-linecap="round"/>
<path d="M15.418 12.3931C15.4536 12.3931 15.4892 12.3931 16.0777 12.4287C16.6662 12.4643 17.8065 12.5356 18.9813 12.717" stroke="#6D6D72" stroke-width="2" stroke-linecap="round"/>
</svg>
