<svg width="22" height="14" viewBox="0 0 22 14" fill="none" xmlns="http://www.w3.org/2000/svg">
<path d="M5.33593 6.66795H7.33593M7.33593 6.66795H9.33593M7.33593 6.66795V4.66795M7.33593 6.66795V8.66795M14.8415 7.66795H14.8515M17.8415 5.66795H17.8515M6.13594 12.668H16.5359C18.2161 12.668 19.0562 12.668 19.6979 12.341C20.2624 12.0534 20.7213 11.5944 21.009 11.0299C21.3359 10.3882 21.3359 9.54811 21.3359 7.86795V5.46795C21.3359 3.7878 21.3359 2.94772 21.009 2.30598C20.7213 1.7415 20.2624 1.28255 19.6979 0.994934C19.0562 0.667953 18.2161 0.667953 16.5359 0.667953H6.13594C4.45578 0.667953 3.6157 0.667953 2.97397 0.994934C2.40948 1.28255 1.95054 1.7415 1.66292 2.30598C1.33594 2.94772 1.33594 3.7878 1.33594 5.46795V7.86795C1.33594 9.54811 1.33594 10.3882 1.66292 11.0299C1.95054 11.5944 2.40948 12.0534 2.97397 12.341C3.6157 12.668 4.45578 12.668 6.13594 12.668Z" stroke="#909090" stroke-linecap="round"/>
</svg>
