<svg width="15" height="25" viewBox="0 0 15 25" fill="none" xmlns="http://www.w3.org/2000/svg">
<path d="M1.16016 22.3626C1.62185 17.2146 1.75461 15.5026 1.91908 14.2096C1.99808 13.5886 2.01816 13.0514 2.18262 12.6561C2.57092 11.7228 4.12451 11.2027 5.80881 10.9035C8.51455 10.4228 10.0017 11.5276 11.0975 12.0567C12.2764 12.6259 13.2435 14.0997 13.7745 16.3427C14.2324 18.2767 13.6437 19.9095 13.4466 21.3669C13.3148 22.0257 13.182 22.6242 13.083 23.1512C13.0493 23.4168 13.0493 23.6783 12.8511 23.9478" stroke="#6D6D72" stroke-width="2" stroke-linecap="round"/>
<path d="M6.69626 2.33297C6.26938 3.5277 5.84251 4.72243 5.72932 5.41582C5.61614 6.1092 5.82957 6.26504 6.08626 6.37129C6.61419 6.58981 7.0722 6.583 7.40772 6.55703C8.66672 6.45957 10.0595 5.22299 10.7099 4.63035C10.9265 4.43302 11.0345 4.19669 11.1154 3.90942C11.2359 3.48128 11.0895 3.09483 10.9553 2.87249C10.574 2.2408 9.74421 1.91426 9.07035 1.70412C8.18628 1.42843 6.91455 1.64981 6.45533 1.72931C6.05029 1.91269 5.56763 2.32982 5.20139 3.06413C5.16016 3.32622 5.16016 3.68983 5.16016 4.06446" stroke="#6D6D72" stroke-width="2" stroke-linecap="round"/>
</svg>
