<svg width="14" height="19" viewBox="0 0 14 19" fill="none" xmlns="http://www.w3.org/2000/svg">
<path d="M0.75 3.46484C0.828029 5.8057 0.906057 8.14656 0.946254 9.4565C1.00823 11.4762 1.14408 12.5241 1.22251 13.0265C1.29337 13.4805 1.38053 13.7883 1.44595 14.26C1.53188 14.8796 1.48536 15.3654 1.57679 15.4706C1.81493 15.7447 2.34998 15.0793 2.88909 14.6714C3.43954 14.255 4.10917 13.9491 5.23822 13.3193C5.66102 13.0835 6.80944 12.5863 8.35819 11.7335C9.75222 10.9659 10.4145 10.3771 10.9028 10.0338C11.1928 9.82993 11.4675 9.61335 11.6649 9.4431C12.2686 8.92262 9.73827 8.30104 8.74203 7.91997C7.67839 7.51311 6.9253 7.0652 6.54619 6.80352C5.4672 6.05877 4.69557 5.70009 3.89282 5.24019C3.30524 4.9135 2.80081 4.67389 2.52535 4.59508" stroke="#6D6D72" stroke-width="1.5" stroke-linecap="round"/>
</svg>
