<svg width="12" height="25" viewBox="0 0 12 25" fill="none" xmlns="http://www.w3.org/2000/svg">
<path d="M1.94531 3.30447C5.62595 2.10826 8.02812 1.67606 8.90994 2.11593C10.3267 2.82261 10.0316 4.69307 10.1473 5.90183C10.2266 6.7307 10.033 7.71426 9.47877 9.03316C8.62137 11.0737 7.47742 12.2718 7.01455 12.7807C5.61648 14.3178 4.82848 15.2916 4.50224 15.896C4.45484 16.0821 4.45484 16.3122 4.47784 16.4997C4.50085 16.6872 4.54685 16.8252 4.59426 16.9674" stroke="#6D6D72" stroke-width="2" stroke-linecap="round"/>
<path d="M5.16406 21.5698C4.50406 22.6989 4.20531 23.3611 4.32969 23.4968C4.39045 23.563 4.53656 23.5786 4.66219 23.5656C4.78781 23.5526 4.91156 23.4988 4.97531 23.4039C5.03906 23.309 5.03906 23.1746 4.93594 23.0919C4.83281 23.0092 4.62656 22.9823 4.47906 23.0088C4.33156 23.0353 4.24906 23.1159 4.16406 23.362" stroke="#6D6D72" stroke-width="2" stroke-linecap="round"/>
</svg>
