<svg width="22" height="22" viewBox="0 0 22 22" fill="none" xmlns="http://www.w3.org/2000/svg">
<path d="M1.33594 6.66795H21.3359M1.33594 6.66795V15.868C1.33594 17.5481 1.33594 18.3882 1.66292 19.0299C1.95054 19.5944 2.40948 20.0534 2.97397 20.341C3.6157 20.668 4.45578 20.668 6.13594 20.668H16.5359C18.2161 20.668 19.0562 20.668 19.6979 20.341C20.2624 20.0534 20.7213 19.5944 21.009 19.0299C21.3359 18.3882 21.3359 17.5481 21.3359 15.868V6.66795M1.33594 6.66795V5.46795C1.33594 3.7878 1.33594 2.94772 1.66292 2.30598C1.95054 1.7415 2.40948 1.28255 2.97397 0.994934C3.6157 0.667953 4.45578 0.667953 6.13594 0.667953H16.5359C18.2161 0.667953 19.0562 0.667953 19.6979 0.994934C20.2624 1.28255 20.7213 1.7415 21.009 2.30598C21.3359 2.94772 21.3359 3.7878 21.3359 5.46795V6.66795M6.71809 11.0518L8.8717 13.2054C9.12711 13.4608 9.12711 13.8749 8.8717 14.1304L6.71809 16.284M11.181 16.284H15.9538" stroke="#909090" stroke-linecap="round"/>
</svg>
