<svg width="19" height="23" viewBox="0 0 19 23" fill="none" xmlns="http://www.w3.org/2000/svg">
<path d="M9.18555 2.80765e-07C9.86485 2.80765e-07 10.2484 -0.000607169 10.5801 0.0546878C10.5602 0.122017 10.5469 0.192847 10.5469 0.266602V5.08203C10.5471 6.4317 11.6415 7.52637 12.9912 7.52637H17.9443L18.0215 7.52246C18.0328 7.52131 18.0436 7.51727 18.0547 7.51563C18.0698 7.79427 18.0713 8.13491 18.0713 8.59668V17.167C18.0713 19.0645 18.0705 20.0135 17.7012 20.7383C17.3763 21.3757 16.8581 21.894 16.2207 22.2188C15.4959 22.588 14.5469 22.5879 12.6494 22.5879H5.42188C3.52449 22.5879 2.57534 22.5879 1.85059 22.2188C1.21305 21.8939 0.693982 21.3758 0.369141 20.7383C-0.000148521 20.0135 1.98206e-10 19.0645 0 17.167V5.4209C2.72313e-10 3.52339 -0.000146598 2.57438 0.369141 1.84961C0.693983 1.21208 1.21306 0.693978 1.85059 0.369141C2.57534 -2.71314e-05 3.5245 2.80765e-07 5.42188 2.80765e-07H9.18555ZM8.99707 17.5684C8.58286 17.5684 8.24707 17.9041 8.24707 18.3184C8.24734 18.7323 8.58303 19.0684 8.99707 19.0684H9.00781L9.08496 19.0645C9.4628 19.0259 9.75756 18.7063 9.75781 18.3184C9.75781 17.9302 9.46291 17.6109 9.08496 17.5723L9.00781 17.5684H8.99707ZM9.51953 9.14453C8.75403 9.01332 7.96647 9.15726 7.29688 9.55078C6.62724 9.94437 6.11908 10.5632 5.86133 11.2959L6.56836 11.5439L7.27539 11.793C7.4156 11.3944 7.69338 11.0588 8.05762 10.8447C8.42188 10.6307 8.8502 10.5516 9.2666 10.623C9.6829 10.6946 10.061 10.9112 10.333 11.2344C10.5709 11.5171 10.7142 11.8659 10.7461 12.2314L10.7529 12.3896V12.3906C10.7528 13.0002 10.375 13.4349 9.8418 13.7607C9.58204 13.9195 9.31597 14.0315 9.11133 14.1035C9.01032 14.1391 8.92747 14.1643 8.87207 14.1797C8.84447 14.1874 8.82381 14.1923 8.81152 14.1953C8.80568 14.1968 8.80174 14.1978 8.7998 14.1982H8.80078C8.3966 14.2883 8.1416 14.6885 8.23145 15.0928C8.3159 15.4716 8.67342 15.7194 9.05078 15.6748L9.12695 15.6621H9.12793L9.12891 15.6611C9.12993 15.6609 9.13148 15.6614 9.13281 15.6611C9.13548 15.6605 9.1387 15.6591 9.14258 15.6582C9.15031 15.6564 9.16054 15.6544 9.17285 15.6514C9.19772 15.6452 9.23171 15.6356 9.27344 15.624C9.35682 15.6008 9.47252 15.5667 9.60938 15.5186C9.88072 15.423 10.2501 15.2701 10.625 15.041C11.3152 14.6191 12.1423 13.8581 12.2432 12.6406L12.2529 12.3906C12.2538 11.6144 11.9803 10.8625 11.4805 10.2686C10.9802 9.67433 10.2851 9.27588 9.51953 9.14453ZM5.86133 11.2959C5.7243 11.6865 5.92884 12.1145 6.31934 12.252C6.70992 12.3892 7.13784 12.1834 7.27539 11.793L5.86133 11.2959ZM12.0469 0.717774C12.1703 0.816137 12.3063 0.931579 12.4668 1.07617L12.8486 1.4248L16.3125 4.60059C16.9601 5.1942 17.2845 5.49059 17.5166 5.84473C17.5553 5.90379 17.5901 5.96513 17.625 6.02637H12.9912C12.4699 6.02637 12.0471 5.60328 12.0469 5.08203V0.717774Z" fill="#4F4F4F"/>
</svg>
