<svg width="18" height="23" viewBox="0 0 18 23" fill="none" xmlns="http://www.w3.org/2000/svg">
<path d="M14.4648 11.4043L14.5078 11.4248C14.5359 11.4418 14.5793 11.4733 14.6445 11.5283C14.7813 11.6437 14.9508 11.8112 15.2197 12.0801L17.7002 14.5605V17.4902C17.7002 18.5103 17.6993 19.2304 17.6533 19.793C17.6194 20.2083 17.5629 20.5009 17.4805 20.7314L17.3896 20.9443C17.1505 21.4135 16.7862 21.8053 16.3398 22.0791L16.1436 22.1895C15.8819 22.3227 15.5469 22.4079 14.9932 22.4531C14.4306 22.4991 13.7105 22.5 12.6904 22.5H5.00977C3.98966 22.5 3.26961 22.4991 2.70703 22.4531C2.29163 22.4192 1.99909 22.3627 1.76855 22.2803L1.55566 22.1895C1.48397 22.1529 1.41464 22.1125 1.34668 22.0703L5.29492 16.3691L5.55957 15.9902C5.63273 15.888 5.69375 15.8073 5.74902 15.7402C5.85404 15.6128 5.89519 15.592 5.89941 15.5898L5.96777 15.5615C6.03802 15.5391 6.11328 15.5343 6.18652 15.5479L6.22949 15.5635C6.25843 15.5769 6.304 15.6021 6.37305 15.6484C6.51751 15.7454 6.69901 15.8897 6.98828 16.1211L7.63965 16.6426L7.82227 16.7861C7.88274 16.8329 7.94222 16.8777 7.99902 16.916C8.11995 16.9976 8.28016 17.089 8.48438 17.1318L8.58887 17.1494C8.83309 17.1809 9.08223 17.1452 9.30859 17.0449L9.44141 16.9756C9.56553 16.9004 9.66228 16.8113 9.73828 16.7324C9.83332 16.6338 9.93376 16.5088 10.0312 16.3896L13.4873 12.167L13.7891 11.8008C13.8726 11.7019 13.9416 11.6238 14.0039 11.5596C14.1231 11.4368 14.1673 11.4204 14.1709 11.4189L14.2422 11.3965C14.3155 11.3803 14.392 11.3831 14.4648 11.4043ZM12.6904 0C13.7105 1.64462e-07 14.4306 0.000925348 14.9932 0.046875C15.5469 0.092116 15.8819 0.177293 16.1436 0.310547L16.3398 0.420898C16.7862 0.694684 17.1505 1.08652 17.3896 1.55566L17.4805 1.76855C17.5629 1.99908 17.6194 2.29166 17.6533 2.70703C17.6993 3.26961 17.7002 3.98967 17.7002 5.00977V12.4395L16.2803 11.0195C16.0298 10.7691 15.8089 10.5478 15.6123 10.3818C15.4348 10.2321 15.2345 10.0901 14.9922 10L14.8857 9.96484C14.5174 9.85724 14.127 9.86089 13.7627 9.97363L13.6084 10.0283C13.3273 10.1419 13.1124 10.3253 12.9277 10.5156C12.838 10.6081 12.7435 10.7148 12.6436 10.833L12.3262 11.2168L8.87109 15.4404C8.81775 15.5056 8.77506 15.556 8.73828 15.5996L8.57715 15.4717L7.92578 14.9502C7.6565 14.7348 7.41787 14.5435 7.20898 14.4033C7.04722 14.2948 6.87045 14.1935 6.66895 14.127L6.45898 14.0732C6.08891 14.0048 5.70821 14.0451 5.3623 14.1875L5.21582 14.2549C4.95165 14.3902 4.75697 14.5857 4.5918 14.7861C4.51181 14.8832 4.42864 14.9947 4.34082 15.1172L4.0625 15.5146L0.307617 20.9375C0.176103 20.6767 0.091771 20.3425 0.046875 19.793C0.000938096 19.2304 8.93557e-08 18.5103 0 17.4902V5.00977C8.97211e-08 3.98966 0.000938059 3.26961 0.046875 2.70703C0.0921326 2.1531 0.177209 1.81735 0.310547 1.55566L0.420898 1.35938C0.694653 0.913257 1.08675 0.549548 1.55566 0.310547L1.76855 0.219727C1.99909 0.137325 2.29163 0.080815 2.70703 0.046875C3.26961 0.000938059 3.98966 8.97211e-08 5.00977 0H12.6904ZM6.4502 3.2998C4.7105 3.2998 3.2998 4.7105 3.2998 6.4502C3.29991 8.1898 4.71056 9.59961 6.4502 9.59961C8.18974 9.5995 9.5995 8.18974 9.59961 6.4502C9.59961 4.71056 8.1898 3.29991 6.4502 3.2998ZM6.4502 4.7998C7.36138 4.79991 8.09961 5.53899 8.09961 6.4502C8.0995 7.36131 7.36131 8.0995 6.4502 8.09961C5.53899 8.09961 4.79991 7.36138 4.7998 6.4502C4.7998 5.53893 5.53893 4.7998 6.4502 4.7998Z" fill="#4F4F4F"/>
</svg>
